<?xml version="1.0" encoding="UTF-8"?>
<svg width="14px" height="13px" viewBox="0 0 14 13" version="1.1" xmlns="http://www.w3.org/2000/svg" xmlns:xlink="http://www.w3.org/1999/xlink">
    <title>Fill 4</title>
    <g id="页面-1" stroke="none" stroke-width="1" fill="none" fill-rule="evenodd">
        <g id="画框" transform="translate(-2007, -3367)" fill="currentColor">
            <g id="播放详情页_黑_h5" transform="translate(1794, 3179)">
                <g id="编组" transform="translate(179, 188)">
                    <path d="M47.7730029,5.9925847 L45.1911408,8.15433427 C45.0286166,8.30919296 44.954392,8.53222628 44.9928199,8.75086234 L45.6024226,12.2231671 C45.6500867,12.4982688 45.6024932,12.6954639 45.3716075,12.85985 C45.2409418,12.9526527 45.0854639,13 44.9300389,13 C44.8106226,13 44.6908707,12.9720995 44.5808318,12.9155657 L41.3208642,11.1989624 C41.1199827,11.0957631 40.8799138,11.0957631 40.6790322,11.1989624 L37.5559114,12.9156339 C37.3028095,13.0458645 36.9964629,13.023827 36.7648178,12.85985 C36.5338438,12.6954639 36.3494566,12.4986778 36.3978801,12.2231671 L37.1447003,8.6788188 C37.1830576,8.46018273 37.1089036,8.23708123 36.9463088,8.08229072 L34.2272998,5.99265287 C34.0219326,5.79784385 33.9486793,5.5061757 34.036555,5.24060141 C34.1251372,4.97495893 34.3598198,4.78168383 34.6429259,4.74127332 L38.1796773,4.13489401 C38.4042231,4.10293715 38.5983409,3.96519029 38.6988435,3.76632488 L40.3271408,0.409047823 C40.4532502,0.158523075 40.7142108,0 41.0003544,0 C41.2864451,0 41.5466463,0.158454901 41.6735151,0.409047823 L43.2379188,3.7662567 C43.3383684,3.96512212 43.5325568,4.10300532 43.7571733,4.13489401 L47.3577299,4.74134149 C47.6400767,4.78129183 47.8755187,4.97502711 47.9634121,5.24060141 C48.051641,5.5061757 47.9772751,5.79784385 47.7730029,5.99265287 L47.7730029,5.9925847 Z" id="Fill-4"></path>
                </g>
            </g>
        </g>
    </g>
</svg>