<?xml version="1.0" encoding="UTF-8"?>
<svg width="14px" height="14px" viewBox="0 0 14 14" version="1.1" xmlns="http://www.w3.org/2000/svg" xmlns:xlink="http://www.w3.org/1999/xlink">
    <title>hot@2x</title>
    <g id="页面-1" stroke="none" stroke-width="1" fill="none" fill-rule="evenodd">
        <g id="电影_筛选_黑_h5" transform="translate(-59.000000, -107.000000)">
            <g id="编组-2" transform="translate(47.000000, 97.000000)">
                <g id="hot" transform="translate(12.000000, 10.000000)">
                    <rect id="矩形" x="0" y="0" width="14" height="14"></rect>
                    <path d="M9.29457731,1.02402138 C8.26691878,2.20807375 8.11979895,3.74018391 8.7236559,5.39622346 C8.87010043,5.79777637 9.42359899,5.82763817 9.61171942,5.44420801 L9.65717704,5.35180912 C10.2570979,4.1421249 10.58518,3.74117348 11.4115979,3.63771467 L11.451325,3.63278621 L11.4435687,3.66068827 C11.1938605,4.60144167 11.2842355,5.43518544 11.6113335,6.33598728 L11.6993546,6.56564567 C11.7561187,6.70866797 11.8387181,6.91112283 11.8516067,6.9448459 C11.9042226,7.07975759 11.9312733,7.16610262 11.9400137,7.22157688 C11.9799531,7.47882687 12,7.73879334 12,7.99914787 C11.9997106,10.7603456 9.76171411,13 6.9998167,13 C4.27214756,13 2.05547141,10.8155288 2.00090684,8.10101561 L2,7.99914787 C2,7.89698908 2.00158214,7.80352301 2.00806506,7.6679322 C2.01838757,7.44502619 2.03700667,7.22248884 2.06384518,7.00101868 C2.14192963,6.35546828 2.2851327,5.71833894 2.50836895,5.12791354 L2.55901676,4.99814374 C2.74804403,4.52875662 2.98220091,4.11257355 3.26445874,3.75770516 L3.31964074,3.69023962 L3.32446434,3.76808597 C3.34865952,4.15933569 3.39448373,4.45576111 3.47827933,4.77531535 C3.69700068,5.60966062 4.15638114,6.19781583 4.92152001,6.4744692 C5.28925205,6.60749876 5.65403205,6.26982176 5.55242772,5.88994242 C5.26181541,4.80486669 5.47117898,3.46543207 6.15885083,2.50845745 C6.80793386,1.605366 7.82978477,1.0672133 9.22974811,1.00325977 L9.31553103,1 L9.29457731,1.02402138 Z" id="路径" stroke="#F7502D" stroke-width="1.5"></path>
                </g>
            </g>
        </g>
    </g>
</svg>