<svg t="1774179516708" class="icon" viewBox="0 0 1024 1024" version="1.1" xmlns="http://www.w3.org/2000/svg" p-id="21402" width="200" height="200"><path d="M84.992 512c0 244.736 194.56 443.392 435.2 443.392s435.2-198.656 435.2-443.392-194.56-443.392-435.2-443.392S84.992 267.264 84.992 512z" fill="#FFB300" p-id="21403"></path><path d="M84.992 503.808c0 230.912 183.808 418.304 410.112 418.304S905.216 734.72 905.216 503.808 721.408 85.504 495.104 85.504c-226.304 0-409.6 187.392-410.112 418.304z" fill="#FFF1B2" p-id="21404"></path><path d="M68.608 520.192c0 230.912 183.808 418.304 410.112 418.304 226.816 0 410.112-187.392 410.112-418.304S705.024 101.888 478.72 101.888c-226.304 0-410.112 187.392-410.112 418.304z" fill="#FFDB2E" p-id="21405"></path><path d="M167.424 528.896c0 180.224 143.36 326.144 320 326.144s320-145.92 320-326.144-143.36-326.144-320-326.144-320 145.92-320 326.144z" fill="#FFBA3A" p-id="21406"></path><path d="M193.024 399.36c-45.568 186.88 51.712 352.256 206.848 403.968 157.696 48.128 326.144-28.16 393.728-178.688-53.76 168.96-233.984 262.656-403.456 209.408-171.008-59.392-261.632-245.76-203.776-416.768 2.048-5.632 4.096-11.776 6.656-17.92z" fill="#FFAF00" p-id="21407"></path><path d="M314.88 441.856l118.784 62.464 75.776-117.76 75.264 117.76 124.416-62.464-75.264 228.864H388.608L314.88 441.856z" fill="#F57837" p-id="21408"></path><path d="M298.496 441.856L417.28 504.32l75.776-117.76 75.264 117.76 124.416-62.464-75.264 228.864H372.224l-73.728-228.864z" fill="#FEF0B2" p-id="21409"></path></svg>