<?xml version="1.0" encoding="UTF-8"?>
<svg width="13px" height="13px" viewBox="0 0 13 13" version="1.1" xmlns="http://www.w3.org/2000/svg" xmlns:xlink="http://www.w3.org/1999/xlink">
    <title>新东方-刷新图标 (1)</title>
    <g id="页面-1" stroke="none" stroke-width="1" fill="none" fill-rule="evenodd">
        <g id="电影_筛选_黑_h5" transform="translate(-14.000000, -144.000000)" fill="currentColor" fill-rule="nonzero">
            <g id="编组-33" transform="translate(14.000000, 142.000000)">
                <g id="新东方-刷新图标-(1)" transform="translate(0.000000, 2.008113)">
                    <path d="M12.3340549,4.65053798 L9.70550131,4.65053798 C9.37016476,4.65053798 9.0989244,4.37883643 9.0989244,4.04393167 C9.0989244,3.70905476 9.37018024,3.43735476 9.70550131,3.43735476 L10.7606974,3.43735476 C9.80885131,2.09237321 8.24363429,1.21319405 6.47034143,1.21319405 C3.56689976,1.21319405 1.21320333,3.56690595 1.21320333,6.47030119 C1.21320333,9.37372738 3.56691524,11.7274238 6.47034143,11.7274238 C9.37376762,11.7274238 11.727464,9.3737119 11.727464,6.47030119 C11.727464,6.13542429 11.998706,5.86372429 12.334027,5.86372429 C12.6689318,5.86372429 12.9406488,6.13542583 12.9406488,6.47030119 C12.9406488,10.0437381 10.043506,12.9406179 6.47033214,12.9406179 C2.8971119,12.9406179 0,10.0437536 0,6.47030119 C0,2.89687976 2.8971119,0 6.47033214,0 C8.63896429,0 10.5544214,1.06919738 11.7274548,2.70732738 L11.7274548,1.61758226 C11.7274548,1.2826775 11.9986967,1.01098988 12.3340177,1.01098988 C12.6689225,1.01098988 12.9406488,1.2826775 12.9406488,1.61758226 L12.9406488,4.0439394 C12.9406488,4.37883798 12.6689287,4.65053798 12.3340549,4.65053798 Z" id="路径"></path>
                </g>
            </g>
        </g>
    </g>
</svg>