<?xml version="1.0" standalone="no"?>
<!DOCTYPE svg PUBLIC "-//W3C//DTD SVG 1.1//EN" "http://www.w3.org/Graphics/SVG/1.1/DTD/svg11.dtd" >
<!--
2013-9-30: Created.
-->
<svg>
<metadata>
Created by iconfont
</metadata>
<defs>

<font id="font_family" horiz-adv-x="1024" >
  <font-face
    font-family="font_family"
    font-weight="500"
    font-stretch="normal"
    units-per-em="1024"
    ascent="896"
    descent="-128"
  />
    <missing-glyph />
    
    <glyph glyph-name="baojing" unicode="&#58898;" d="M512.512 874.496c-271.36 0-491.008-220.16-491.008-491.008 0-271.36 220.16-491.008 491.008-491.008 271.36 0 491.008 220.16 491.008 491.008 0 271.36-219.648 491.008-491.008 491.008z m0-872.96c-210.944 0-381.952 171.008-381.952 381.952 0 210.944 171.008 381.952 381.952 381.952 210.944 0 381.952-171.008 381.952-381.952 0-210.944-171.008-381.952-381.952-381.952zM730.112 440.32H294.4c-31.232 0-56.832-25.6-56.832-56.832s25.6-56.832 56.832-56.832h435.712c31.232 0 56.832 25.6 56.832 56.832s-25.6 56.832-56.832 56.832z"  horiz-adv-x="1024" />

    
    <glyph glyph-name="diannao-" unicode="&#58899;" d="M730.624 875.008H293.888c-150.016 0-272.896-122.88-272.896-272.896V384c0-150.016 122.88-272.896 272.896-272.896h436.736c150.016 0 272.896 122.88 272.896 272.896V602.112c0 150.016-122.88 272.896-272.896 272.896z m159.744-489.472c0-91.136-74.752-165.888-165.888-165.888h-424.96c-91.136 0-165.888 74.752-165.888 165.888V600.064c0 91.136 74.752 165.888 165.888 165.888h424.96c91.136 0 165.888-74.752 165.888-165.888v-214.528zM730.624-107.52H293.888c-30.208 0-54.784 24.576-54.784 54.784 0 30.208 24.576 54.784 54.784 54.784h436.736c30.208 0 54.784-24.576 54.784-54.784 0-30.208-24.576-54.784-54.784-54.784z"  horiz-adv-x="1024" />

    
    <glyph glyph-name="erweim-" unicode="&#58900;" d="M650.24 429.7728h207.8208a93.952 93.952 0 0 1 93.2352 93.3888V730.9824A93.952 93.952 0 0 1 857.9584 824.3199999999999H650.24a93.952 93.952 0 0 1-93.3376-93.3376v-207.8208A93.952 93.952 0 0 1 650.24 429.7728z m0 255.3856a45.4656 45.4656 0 0 0 45.7728 45.7728h116.224a45.4656 45.4656 0 0 0 45.7728-45.7728v-116.224a45.4656 45.4656 0 0 0-45.7728-45.7728h-116.224a47.0016 47.0016 0 0 0-45.7728 47.5136zM348.928 338.22720000000004H186.88a116.1216 116.1216 0 0 1-116.224-116.224v-162.0992A115.0464 115.0464 0 0 1 186.88-56.32000000000005h162.048a116.1216 116.1216 0 0 1 116.224 116.224v162.048a116.1216 116.1216 0 0 1-116.224 116.2752z m22.8864-255.3856a45.4656 45.4656 0 0 0-45.7728-45.7728H209.92a45.4656 45.4656 0 0 0-46.08 45.7728v116.224a45.4656 45.4656 0 0 0 46.08 45.7728h116.224a45.4656 45.4656 0 0 0 45.7728-45.7728zM371.8144 824.3199999999999H163.84a93.952 93.952 0 0 1-93.184-93.3376v-207.8208A93.952 93.952 0 0 1 163.84 429.7728h207.9744a93.952 93.952 0 0 1 93.3888 93.3888V730.9824A93.952 93.952 0 0 1 371.8144 824.3199999999999z m0-255.3856a45.4656 45.4656 0 0 0-45.7728-45.7728H209.92a45.4656 45.4656 0 0 0-46.08 45.7728v116.224a45.4656 45.4656 0 0 0 46.08 45.824h116.224a45.4656 45.4656 0 0 0 45.7728-45.7728zM555.3664 102.39999999999998m46.08 0l0 0q46.08 0 46.08-46.08l0-56.32q0-46.08-46.08-46.08l0 0q-46.08 0-46.08 46.08l0 56.32q0 46.08 46.08 46.08ZM860.16 91.18719999999996a45.4656 45.4656 0 0 0-45.7728-45.7728h-58.7264a46.6944 46.6944 0 0 1-46.6944-46.6944 46.6944 46.6944 0 0 1 46.6944-46.6944H860.16a93.6448 93.6448 0 0 1 93.3376 93.3376v102.4a46.6944 46.6944 0 0 1-46.6944 46.6944 46.6944 46.6944 0 0 1-46.6944-46.6944zM555.3664 337.91999999999996m46.08 0l0 0q46.08 0 46.08-46.08l0-56.32q0-46.08-46.08-46.08l0 0q-46.08 0-46.08 46.08l0 56.32q0 46.08 46.08 46.08ZM857.4464 337.91999999999996m46.08 0l0 0q46.08 0 46.08-46.08l0 0q0-46.08-46.08-46.08l0 0q-46.08 0-46.08 46.08l0 0q0 46.08 46.08 46.08ZM708.9664 337.91999999999996m46.08 0l0 0q46.08 0 46.08-46.08l0-143.36q0-46.08-46.08-46.08l0 0q-46.08 0-46.08 46.08l0 143.36q0 46.08 46.08 46.08Z"  horiz-adv-x="1024" />

    
    <glyph glyph-name="fenxiang-" unicode="&#58901;" d="M659.46716738 730.0131334h120.45028096l-292.2138835-292.44840557a52.15759893 52.15759893 0 0 1 0-73.54596621 52.15759893 52.15759893 0 0 1 73.54596622 0l292.44840556 292.30769268v-120.35647266a52.01688516 52.01688516 0 0 1 103.98686661 0V781.98311484a32.83302041 32.83302041 0 0 1-0.28142579 5.11256954A51.59474648 51.59474648 0 0 1 910.96810508 833.43714844c-1.73545927 0-3.47091943 0.28142578-5.2532833 0.28142578h-246.2476544a52.01688516 52.01688516 0 0 1-3.14258994-103.98686661h3.14258994zM911.95309531 384a50.0000001 50.0000001 0 0 1-49.99999922-50.0000001v-144.55909951a152.34521573 152.34521573 0 0 0-151.87617333-151.87617246H313.87617266a152.34521573 152.34521573 0 0 0-151.87617246 151.87617246v389.3058167A152.34521573 152.34521573 0 0 0 313.87617266 730.43527208h146.34146338a51.59474648 51.59474648 0 0 1 51.59474648 51.59474647 51.59474648 51.59474648 0 0 1-51.59474648 51.59474648H311.99999961A250.75046865 250.75046865 0 0 1 62 583.62476542v-399.62476581a250.75046865 250.75046865 0 0 1 249.99999961-249.99999961h400.00000078a250.75046865 250.75046865 0 0 1 249.99999961 249.99999961v150.09380859a50.0000001 50.0000001 0 0 1-50.04690469 49.9061918z"  horiz-adv-x="1024" />

    
    <glyph glyph-name="guangbi-" unicode="&#58902;" d="M136.192 842.752l839.168-839.168c22.016-22.016 22.016-58.368 0-80.384-22.016-22.016-58.368-22.016-80.384 0L55.808 762.368c-22.016 22.016-22.016 58.368 0 80.384 22.528 22.016 58.368 22.016 80.384 0zM975.36 762.368L136.192-76.8c-22.016-22.016-58.368-22.016-80.384 0-22.016 22.016-22.016 58.368 0 80.384L894.976 842.752c22.016 22.016 58.368 22.016 80.384 0 22.016-22.528 22.016-58.368 0-80.384z"  horiz-adv-x="1024" />

    
    <glyph glyph-name="paihang-" unicode="&#58904;" d="M778.24-58.879999999999995m0 71.68l0 271.36q0 71.68 71.68 71.68l0 0q71.68 0 71.68-71.68l0-271.36q0-71.68-71.68-71.68l0 0q-71.68 0-71.68 71.68ZM440.32-58.879999999999995m0 71.68l0 742.4q0 71.68 71.68 71.68l0 0q71.68 0 71.68-71.68l0-742.4q0-71.68-71.68-71.68l0 0q-71.68 0-71.68 71.68ZM102.4-58.879999999999995m0 71.68l0 506.88q0 71.68 71.68 71.68l0 0q71.68 0 71.68-71.68l0-506.88q0-71.68-71.68-71.68l0 0q-71.68 0-71.68 71.68Z"  horiz-adv-x="1024" />

    
    <glyph glyph-name="shaixuan-" unicode="&#58909;" d="M623.104-104.448c-12.8 0-25.088 4.608-34.304 12.8l-229.888 192.512c-0.512 0.512-1.024 1.024-2.048 1.536-11.776 10.24-18.432 25.088-18.432 40.448v256l-248.832 245.76c-2.56 2.56-4.608 5.12-6.656 8.192-20.48 24.064-31.744 54.784-31.744 86.528C51.2 814.592 112.64 875.52 188.416 875.52h647.168C911.36 875.52 972.8 814.592 972.8 739.84c0-32.768-11.776-64-33.28-89.088-1.536-2.048-3.072-4.096-5.12-5.632l-258.048-254.464V-46.08c1.536-14.336-3.072-28.672-12.288-39.936-10.24-11.776-25.088-18.432-40.96-18.432z m-55.296 168.96v348.16c0 14.336 5.632 28.16 15.872 38.4l270.336 266.752c0.512 1.024 1.536 1.536 2.048 2.56 5.12 5.12 7.68 11.776 7.68 18.944 0 15.36-12.8 28.16-28.672 28.16H188.416c-15.872 0-28.672-12.8-28.672-28.16 0-7.168 2.56-13.824 7.68-19.456 1.024-1.536 2.56-2.56 3.584-4.096l260.096-257.024c10.24-10.24 15.872-24.064 15.872-38.4v-255.488l120.832-100.352z"  horiz-adv-x="1024" />

    
    <glyph glyph-name="shouji-" unicode="&#58912;" d="M109.568 602.112v-436.736c0-150.016 122.88-272.896 272.896-272.896h259.072c150.016 0 272.896 122.88 272.896 272.896V602.112c0 150.016-122.88 272.896-272.896 272.896H382.464c-150.016 0-272.896-122.88-272.896-272.896zM640 761.856c91.136 0 165.888-74.752 165.888-165.888v-424.96c0-91.136-74.752-165.888-165.888-165.888H384.512c-91.136 0-165.888 74.752-165.888 165.888v424.96c0 91.136 74.752 165.888 165.888 165.888H640zM628.224 151.552H396.288c-30.208 0-54.784 24.576-54.784 54.784 0 30.208 24.576 54.784 54.784 54.784h231.936c30.208 0 54.784-24.576 54.784-54.784 0-30.208-24.576-54.784-54.784-54.784z"  horiz-adv-x="1024" />

    
    <glyph glyph-name="shuaxin-" unicode="&#58913;" d="M514.56-104.96c-176.64 0-340.48 95.744-427.008 249.856C-14.336 326.656 9.728 553.472 147.968 709.12 240.64 814.592 374.784 874.496 514.56 874.496c64 0 126.464-12.288 185.856-36.864 192.512-79.36 314.368-271.872 303.104-480.256l-0.512-12.8c-6.656-89.6-34.816-150.528-57.344-186.88-26.112-40.96-54.784-65.536-59.392-64-2.56 1.024-14.848 22.528-15.872 24.064l-117.76 215.04c-15.36 30.72 9.728 30.72 10.24 30.72h137.728s0.512 0 0.512 0.512v15.36c0 162.816-99.328 311.296-252.416 368.128-43.008 15.872-88.064 24.064-134.144 24.064-114.688 0-222.72-50.688-296.448-138.24-103.936-123.904-119.296-301.568-37.888-441.856 69.12-118.784 197.12-193.024 334.336-193.024 22.528 0 45.568 2.048 68.096 6.144 3.072 0.512 6.144 1.024 9.216 1.024 25.088 0 46.592-17.92 50.688-42.496 2.56-15.36-1.536-31.232-12.288-43.52-7.68-9.216-18.944-14.848-30.72-16.896-28.16-5.12-56.832-7.68-84.992-7.68z"  horiz-adv-x="1024" />

    
    <glyph glyph-name="lishi-" unicode="&#58916;" d="M513.024 875.008c-271.36 0-491.008-220.16-491.008-491.008 0-270.848 220.16-491.008 491.008-491.008s491.008 220.16 491.008 491.008c0 270.848-219.648 491.008-491.008 491.008z m0-873.472c-210.944 0-381.952 171.008-381.952 381.952 0 210.944 171.008 381.952 381.952 381.952s381.952-171.008 381.952-381.952c0.512-210.944-171.008-381.952-381.952-381.952zM564.224 419.84V602.112c0 30.208-24.576 54.784-54.784 54.784-30.208 0-54.784-24.576-54.784-54.784v-204.8c0-15.872 6.656-30.208 17.408-39.936l157.184-157.184c20.992-20.992 55.808-20.992 77.312 0 20.992 20.992 20.992 55.808 0 77.312L564.224 419.84z"  horiz-adv-x="1024" />

    
    <glyph glyph-name="xiangyou-" unicode="&#58915;" d="M354.816 811.52l389.12-389.12c20.48-21.504 20.48-55.296 0-76.8l-389.12-389.12c-20.992-20.48-54.272-20.48-75.264 0-20.48 20.992-20.48 54.272 0 75.264l352.256 352.256-351.744 352.256c-20.48 20.992-20.48 54.272 0 75.264 20.48 20.48 54.272 20.48 74.752 0z"  horiz-adv-x="1024" />

    
    <glyph glyph-name="xiangzuo-" unicode="&#58917;" d="M743.936 811.52c20.48-20.992 20.48-54.272 0-75.264L391.68 384l352.256-352.256c20.48-20.992 20.48-54.272 0-75.264-20.992-20.48-54.272-20.48-75.264 0l-389.12 389.12c-20.48 21.504-20.48 55.296 0 76.8l389.12 389.12c20.992 20.48 54.784 20.48 75.264 0z"  horiz-adv-x="1024" />

    
    <glyph glyph-name="shangyige-" unicode="&#58918;" d="M867.84 842.752c-7.168 0-14.336-2.048-20.48-5.632L226.816 470.016V789.504c0 29.184-24.064 52.736-52.736 52.736-29.184 0-52.736-24.064-52.736-52.736V-20.48c0-29.184 24.064-52.736 52.736-52.736 29.184 0 52.736 24.064 52.736 52.736v321.536c126.976-75.264 357.888-212.992 500.224-297.984 64-38.4 110.08-65.536 120.832-72.192 5.12-3.072 11.264-4.608 17.92-4.608 0 0 1.536 0 1.536-0.512 9.728 0 18.432 3.584 25.088 10.24 6.656 7.168 10.24 16.896 10.24 26.112V804.352c1.024 20.48-14.848 37.888-34.816 38.4z m-70.656-759.808l-506.88 301.056 506.88 300.032v-601.088z"  horiz-adv-x="1024" />

    
    <glyph glyph-name="xianshang" unicode="&#58920;" d="M942.592 228.864L552.448 619.52c-10.752 10.752-24.576 15.872-38.4 15.36-13.824 0-27.648-4.608-38.4-15.36l-390.144-390.144c-20.48-20.48-20.48-54.784 0-75.264s54.784-20.48 75.264 0l353.28 353.28 353.28-353.28c20.48-20.48 54.784-20.48 75.264 0 20.992 20.48 20.992 53.76 0 74.752z"  horiz-adv-x="1024" />

    
    <glyph glyph-name="shoucang-" unicode="&#58921;" d="M756.736-99.84c-16.384 0-34.816 4.608-51.712 13.312L512 9.728l-194.048-96.256c-15.36-8.192-33.28-12.288-51.2-12.288-23.552 0-47.104 7.68-66.048 21.504-34.304 26.112-52.224 70.656-44.032 111.616l39.424 204.288-151.552 141.312c-29.696 30.208-40.96 73.728-29.696 114.176l0.512 2.048c13.824 41.984 48.64 71.168 91.136 77.312L317.44 611.84l94.72 192.512C431.104 842.752 470.528 867.84 512 867.84c43.52 0 83.968-26.112 100.864-64.512l94.208-191.488 211.456-36.864c42.496-6.144 77.312-36.864 89.6-78.336 13.312-40.448 2.56-84.992-28.16-115.2l-0.512-0.512-151.04-142.336 37.888-205.312c7.68-41.984-8.704-84.48-43.52-110.592-18.432-14.848-41.472-23.04-65.536-23.04l-0.512 0.512z m-20.992 115.2c4.096-2.048 8.704-3.072 9.728-3.072 3.072 0 5.632 1.024 7.168 2.048l1.536 1.024 0.512 0.512c6.144 4.608 9.216 11.776 7.68 18.432l-45.056 243.2L895.488 445.44c5.12 5.12 6.656 12.288 4.608 19.456l-0.512 2.048c-1.536 6.144-6.656 10.24-12.8 11.264h-1.536l-246.272 43.008-111.104 225.28v0.512c-2.048 4.608-8.704 8.704-14.848 8.704s-12.8-4.608-15.872-11.264L386.048 521.216 138.24 476.16h-0.512c-6.656-1.024-11.264-5.12-14.336-12.288-1.536-6.656 1.024-15.36 5.632-20.48L307.2 276.992l-47.104-243.2c-1.024-6.144 2.048-13.824 7.68-17.92 2.56-2.048 6.144-3.072 9.728-3.072 3.072 0 5.632 0.512 7.68 1.536l0.512 0.512 225.792 112.128 224.256-111.616z"  horiz-adv-x="1024" />

    
    <glyph glyph-name="qiehuan-" unicode="&#58922;" d="M326.144 837.12c55.296 22.528 113.664 34.816 173.056 36.352h12.8c6.144 0 12.8 0 18.944-0.512h5.12c5.12-0.512 10.752-0.512 15.872-1.024 1.536 0 2.56 0 4.096-0.512l13.824-1.536c9.216-1.024 18.432-2.56 27.648-4.096 11.776-2.048 23.04-7.68 30.72-16.896 10.752-12.288 14.848-27.648 12.288-43.52-4.608-24.576-25.6-42.496-50.688-42.496-3.072 0-6.144 0.512-9.216 1.024-22.528 4.096-45.056 6.144-68.096 6.144h-12.8c-41.472-1.536-81.92-9.216-121.344-23.552-153.088-56.32-252.416-204.8-252.416-368.128v-15.36s0-0.512 0.512-0.512h137.728c0.512 0 25.6 0 10.24-30.72l-117.76-215.04c-1.024-1.536-13.312-23.04-15.872-24.064-4.608-1.536-33.28 23.04-59.392 64-23.04 36.352-50.688 97.28-57.344 186.88l-0.512 12.8C11.264 565.248 133.12 757.76 326.144 837.12zM435.2 4.608c3.072 0 6.144-0.512 9.216-1.024 22.528-4.096 45.056-6.144 68.096-6.144 61.44 0 121.344 14.848 174.592 41.984 129.536 66.048 211.968 202.24 211.968 350.208v15.36s0 0.512-0.512 0.512h-137.728c-0.512 0-25.6 0-10.24 30.72l117.76 215.04c1.024 1.536 13.312 23.04 15.872 24.064 4.608 1.536 33.28-23.04 59.392-64 23.04-36.352 50.688-97.28 57.344-186.88l0.512-12.8c9.728-179.2-79.36-347.136-227.328-440.832-1.024-0.512-1.536-1.024-2.56-1.536-3.072-2.048-6.656-4.096-9.728-6.144-2.048-1.024-3.584-2.048-5.632-3.072-3.072-2.048-6.656-3.584-10.24-5.632-2.048-1.024-4.096-2.048-5.632-3.072-3.072-1.536-6.656-3.584-9.728-5.12-2.048-1.024-4.608-2.048-6.656-3.072-3.072-1.536-6.144-3.072-9.728-4.608-3.072-1.536-6.656-3.072-9.728-4.096-2.048-1.024-4.096-2.048-6.144-2.56-57.856-24.064-121.344-36.864-185.856-36.864-28.16 0-56.832 2.56-84.992 7.68-11.776 2.048-23.04 7.68-30.72 16.896-10.752 12.288-14.848 27.648-12.288 43.52 4.096 23.552 25.6 41.472 50.688 41.472z"  horiz-adv-x="1024" />

    
    <glyph glyph-name="yonghui-" unicode="&#58923;" d="M512 875.008C240.64 875.008 20.992 655.36 20.992 384c0-271.36 220.16-491.008 491.008-491.008s491.008 220.16 491.008 491.008c0 271.36-219.648 491.008-491.008 491.008z m0-872.96c-210.944 0-381.952 171.008-381.952 381.952 0 210.944 171.008 381.952 381.952 381.952s381.952-171.008 381.952-381.952c0-210.944-171.008-381.952-381.952-381.952zM711.168 246.784c-18.432 18.432-48.64 19.456-67.584 1.536-34.304-33.28-80.384-53.248-131.584-53.248s-97.28 20.48-131.584 53.248c-18.944 18.432-49.152 17.408-67.584-1.536-19.456-19.456-18.944-50.688 1.024-69.632C365.056 128 435.2 97.28 512 97.28c76.8 0 146.944 30.208 198.144 79.872 19.456 18.944 19.968 50.176 1.024 69.632z"  horiz-adv-x="1024" />

    
    <glyph glyph-name="xiayige-" unicode="&#58924;" d="M121.344 804.352v-842.752c-0.512-9.728 3.584-18.944 10.24-26.112 6.656-6.656 15.872-10.24 25.088-10.24 0 0.512 1.536 0.512 1.536 0.512 6.656 0 12.8 2.048 17.92 4.608 10.752 6.656 57.344 33.792 120.832 72.192 142.336 84.992 373.248 222.72 500.224 297.984V-20.48c0-29.184 24.064-52.736 52.736-52.736 29.184 0 52.736 24.064 52.736 52.736V789.504c0 29.184-24.064 52.736-52.736 52.736-29.184 0-52.736-24.064-52.736-52.736v-319.488L176.64 837.12c-6.144 3.584-13.312 5.632-20.48 5.632-19.968-0.512-35.84-17.92-34.816-38.4z m105.472-119.808l506.88-300.032-506.88-301.056V684.544z"  horiz-adv-x="1024" />

    
    <glyph glyph-name="tongzhi-" unicode="&#58925;" d="M933.888 438.784h-170.496c-30.208 0-54.784-24.576-54.784-54.784 0-30.208 24.576-54.784 54.784-54.784h170.496c30.208 0 54.784 24.576 54.784 54.784 0 30.208-24.576 54.784-54.784 54.784zM801.792 605.184l120.832 120.32c20.992 20.992 20.992 55.808 0 77.312-20.992 20.992-55.808 20.992-77.312 0l-120.32-120.32c-20.992-20.992-20.992-55.808 0-77.312 20.992-21.504 55.808-21.504 76.8 0zM801.792 162.816c-20.992 20.992-55.808 20.992-77.312 0-20.992-20.992-20.992-55.808 0-77.312l120.32-120.32c20.992-20.992 55.808-20.992 77.312 0 20.992 20.992 20.992 55.808 0 77.312l-120.32 120.32zM613.376 876.544c-5.632 2.56-14.848 5.632-26.624 5.632-18.944 0-36.864-7.68-53.76-23.04L311.296 637.44H133.632c-54.272 0-98.304-44.544-98.304-98.816v-300.544c0-54.272 44.032-98.304 98.304-98.816h123.392l275.456-230.4c16.896-15.36 35.328-23.04 53.76-23.04 11.776 0 20.992 3.072 26.624 5.632 12.288 5.632 40.96 23.552 40.96 71.168V805.888c0.512 32.768-14.848 59.392-40.448 70.656z m-62.976-843.264L312.32 229.376c-9.728 8.704-22.016 13.312-34.816 13.312h-97.28c-22.016 0-40.448 17.92-40.448 40.448l-0.512 209.92c0 10.752 4.096 20.992 11.776 28.672 7.68 7.68 17.92 11.776 28.672 11.776h142.336c3.072-0.512 6.144-1.024 9.216-1.024 12.8 0 25.088 4.608 34.816 13.312l184.832 188.416v-700.928z"  horiz-adv-x="1024" />

    
    <glyph glyph-name="xiaoshuo-" unicode="&#58926;" d="M185.344-107.52c-66.048 0-109.056 42.496-109.056 103.936V761.856C76.288 833.024 118.784 875.52 185.344 875.52h615.424c30.72 0 55.296-24.576 55.296-55.296v-99.328h36.352c30.72 0 55.296-24.576 55.296-55.296v-717.824c0-34.816-16.384-55.296-44.032-55.296H185.344z m-9.728 109.056c0-5.12 4.096-9.216 9.216-9.216h663.04V621.568H185.344c-3.072 0-6.144 0-9.216 0.512v-620.544z m19.456 774.656c-7.68 0-17.92-12.288-17.92-27.136 0-17.408 10.24-28.16 17.92-28.16h561.152V776.192H195.072z m100.864-534.016c-30.72 0-55.296 24.576-55.296 55.296s25.088 55.296 55.296 55.296h249.344c30.72 0 55.296-24.576 55.296-55.296s-25.088-55.296-55.296-55.296H295.936z m0 177.152c-30.72 0-55.296 24.576-55.296 55.296s25.088 55.296 55.296 55.296h419.328c30.72 0 55.296-24.576 55.296-55.296 0-30.72-25.088-55.296-55.296-55.296H295.936z"  horiz-adv-x="1024" />

    
    <glyph glyph-name="shipin-" unicode="&#58927;" d="M512 875.008C240.64 875.008 20.992 655.36 20.992 384c0-271.36 220.16-491.008 491.008-491.008 271.36 0 491.008 220.16 491.008 491.008 0 271.36-219.648 491.008-491.008 491.008z m0-872.96c-210.944 0-381.952 171.008-381.952 381.952 0 210.944 171.008 381.952 381.952 381.952 210.944 0 381.952-171.008 381.952-381.952 0-210.944-171.008-381.952-381.952-381.952zM687.104 472.576L486.912 584.704c-15.36 8.704-32.256 12.8-49.664 12.8-17.92 0-35.84-5.12-51.2-14.336-31.232-18.432-50.176-51.2-50.176-87.552v-223.232c0-36.352 18.944-69.12 50.176-87.552 15.872-9.216 33.28-14.336 51.712-14.336 17.408 0 34.304 4.608 49.664 12.8l200.192 111.616c32.256 17.92 52.224 52.224 52.224 89.088-0.512 36.864-20.48 70.656-52.736 88.576zM608.768 363.52l-133.12-73.216c-15.36-8.704-34.304 2.56-34.304 20.48V457.216c0 17.92 18.944 29.184 34.304 20.48l133.12-73.216c15.872-8.704 15.872-32.256 0-40.96z"  horiz-adv-x="1024" />

    
    <glyph glyph-name="xinwen-" unicode="&#58928;" d="M583.168 850.944H236.544c-119.296 0-216.576-97.28-216.576-216.576v-498.176c0-119.296 97.28-216.576 216.576-216.576h346.624c119.296 0 216.576 97.28 216.576 216.576V634.3679999999999c0 119.296-97.792 216.576-216.576 216.576z m107.008-708.608c0-60.416-49.152-109.568-109.568-109.568H238.592c-60.416 0-109.568 49.152-109.568 109.568v486.4c0 60.416 49.152 109.568 109.568 109.568h342.528c60.416 0 109.568-49.152 109.568-109.568v-486.4zM948.736 684.032c-30.208 0-54.784-24.576-54.784-54.784v-487.936c0-30.208 24.576-54.784 54.784-54.784 30.208 0 54.784 24.576 54.784 54.784V629.248c0 30.208-24.576 54.784-54.784 54.784zM548.864 572.928H270.848c-30.208 0-54.784-24.576-54.784-54.784 0-30.208 24.576-54.784 54.784-54.784h278.016c30.208 0 54.784 24.576 54.784 54.784-0.512 30.208-25.088 54.784-54.784 54.784zM548.864 306.688H270.848c-30.208 0-54.784-24.576-54.784-54.784 0-30.208 24.576-54.784 54.784-54.784h278.016c30.208 0 54.784 24.576 54.784 54.784-0.512 30.208-25.088 54.784-54.784 54.784z"  horiz-adv-x="1024" />

    
    <glyph glyph-name="huo-" unicode="&#58929;" d="M514.56-107.52c-247.808 0-449.024 202.24-449.024 451.072 0 93.696 29.184 184.832 81.92 256l2.56 3.072 5.12 6.144C199.68 659.456 225.28 701.44 235.52 740.864c1.024 5.12 4.608 23.04 10.24 86.016l3.584 48.64 48.64-1.536c32.256-1.024 54.272-2.56 68.608-5.12C502.272 845.824 624.64 752.64 652.8 569.344c32.768 70.656 26.624 177.664 26.624 177.664s62.464-22.528 113.664-61.952c108.032-82.944 170.496-206.336 170.496-339.456 0-121.344-46.592-235.52-131.072-321.024C747.52-60.416 634.88-107.52 514.56-107.52zM228.864 537.088C189.952 483.328 168.448 414.72 168.448 343.552c0-192 155.648-348.672 346.624-348.672s346.624 157.184 346.624 350.72c0 93.184-28.672 165.888-100.352 228.352-28.16-150.528-194.048-204.288-194.048-204.288s29.184 369.152-217.6 398.336c-2.048 0-4.096 0.512-6.144 1.024-2.56-25.088-5.632-42.496-8.192-53.248-14.336-55.808-46.592-111.616-102.4-174.592l-4.096-4.096z"  horiz-adv-x="1024" />

    
    <glyph glyph-name="liuyan-" unicode="&#58930;" d="M512-107.51999999999998c-270.848 0-491.52 220.672-491.52 491.52S241.152 875.52 512 875.52s491.52-220.672 491.52-491.52c0-77.312-18.432-154.112-53.248-222.72l37.376-149.504c5.632-28.16 0-54.272-15.36-73.728-15.872-19.968-39.424-31.232-67.072-31.232-8.704 0-17.92 1.024-27.136 3.584l-142.848 35.84c-68.608-34.816-145.408-53.248-222.208-53.248h-1.024z m0 884.224c-216.576 0-392.704-176.128-392.704-392.704s176.128-392.704 392.704-392.704c67.584 0 133.632 17.408 192 50.176 7.168 4.096 15.872 6.144 24.064 6.144 4.096 0 8.192-0.512 11.776-1.536l145.92-36.352-36.352 145.92c-3.072 12.288-1.536 25.088 5.12 36.352 32.768 58.368 50.176 124.928 50.176 192 0 216.576-176.128 392.704-392.704 392.704zM312.832 246.27200000000005c-17.408 0-33.792 9.216-42.496 24.576-8.704 15.36-8.704 34.304 0 49.152 8.704 15.36 25.088 24.576 42.496 24.576h265.216c17.408 0 33.792-9.216 42.496-24.576 8.704-15.36 8.704-34.304 0-49.152-8.704-15.36-25.088-24.576-42.496-24.576H312.832z m-5.12 176.64c-15.872 1.536-30.208 10.752-38.4 24.576-9.216 15.36-9.216 34.304 0 50.176 8.704 14.848 25.088 24.576 42.496 24.576h398.848c17.408 0 33.792-9.216 42.496-24.576 8.704-15.36 8.704-34.304 0-49.152-8.704-15.36-25.088-24.576-42.496-24.576H307.712z"  horiz-adv-x="1024" />

    
    <glyph glyph-name="soushuo-1" unicode="&#58931;" d="M987.136-11.264L821.76 153.6c58.88 75.776 94.208 171.008 94.208 274.944 0 247.296-200.192 447.488-447.488 447.488S20.48 675.84 20.48 428.544s200.192-447.488 447.488-447.488c102.912 0 197.632 34.816 272.896 93.184l165.376-165.376c22.016-22.016 57.856-22.016 80.384 0s22.528 57.856 0.512 79.872zM128 428.544c0 187.904 152.064 339.968 339.968 339.968s339.968-152.064 339.968-339.968-152.064-339.968-339.968-339.968C280.576 88.576 128 240.64 128 428.544z"  horiz-adv-x="1024" />

    
    <glyph glyph-name="shouye" unicode="&#58932;" d="M958.976 64V511.488c0 56.832-27.648 110.08-71.68 138.24l-281.088 193.536c-27.136 18.432-58.88 28.672-92.672 28.672-33.792 0-66.56-9.728-94.72-28.16L136.704 649.7280000000001c-45.056-28.672-71.68-78.848-71.68-134.656v-451.584c0-92.16 75.264-167.424 167.424-167.424h563.2c45.056 0 88.576 18.432 119.296 50.688 30.208 32.256 46.08 73.728 44.032 117.248z m-101.888-0.512c0-34.816-27.136-61.44-61.44-61.44h-563.2c-34.816 0-61.44 27.136-61.44 61.44V511.488c0 22.016 9.216 38.912 27.648 52.224L481.28 761.344c9.216 6.656 20.992 10.752 33.28 10.752 12.288 0 24.576-3.584 33.28-10.752l0.512-0.512 281.6-193.536c16.896-12.288 27.648-32.256 27.648-52.736v-451.072zM622.08 261.63199999999995h-220.16c-32.256 0-54.784-22.528-54.784-54.784 0-30.72 24.064-54.784 54.784-54.784h219.648c30.72 0 54.784 24.064 54.784 54.784s-24.064 54.784-54.272 54.784z"  horiz-adv-x="1024" />

    
    <glyph glyph-name="shengming-" unicode="&#58933;" d="M512-36.351999999999975c-5.12 0-10.24 0.512-15.36 2.048-1.536 0.512-3.072 1.024-4.096 1.536l-1.536 0.512-0.512 0.512-115.2 41.984c-7.68 3.072-15.872 5.12-23.552 6.656-7.68 1.536-15.872 2.048-24.064 2.048H94.72C65.024 18.94399999999996 40.96 42.49599999999998 40.96 71.67999999999995V721.408c0 28.672 24.064 52.224 53.76 52.224H353.28c56.32 0 109.568-20.992 149.504-58.88 2.048-1.536 3.584-3.584 5.632-5.632l3.584-4.096 3.584 4.096c1.536 2.048 3.584 3.584 5.12 5.12C561.152 752.64 614.4 773.6320000000001 670.72 773.6320000000001h258.56c29.696 0 53.76-23.552 53.76-52.224V71.67999999999995c0-29.184-24.064-52.736-53.76-52.736h-227.328c-10.24 0-19.968-1.024-29.184-2.56-9.216-1.536-18.944-4.096-28.672-7.68l-110.08-40.96h-0.512l-2.56-1.024-1.024-0.512-2.56-1.024h-0.512c-5.12-1.024-9.728-1.536-14.848-1.536z m158.72 705.536c-28.16 0-54.784-10.24-74.752-29.696-19.456-18.432-30.208-43.008-30.208-69.632v-478.208l40.448 14.848c14.848 5.632 30.72 9.728 47.104 12.8 15.872 3.072 32.256 4.096 48.64 4.096h174.08V669.184H670.72zM147.968 123.904h179.2c14.848 0 29.184-1.024 43.52-3.584 14.336-2.56 28.16-6.656 41.984-11.264l45.568-16.896V569.856c0 26.112-10.752 50.688-30.208 69.12-19.968 18.944-46.592 29.696-74.752 29.696H148.48v-544.768z"  horiz-adv-x="1024" />

    
    <glyph glyph-name="gantan-" unicode="&#58934;" d="M512 870.4C243.2 870.4 25.6 652.8 25.6 384s217.6-486.4 486.4-486.4 486.4 217.6 486.4 486.4-217.6 486.4-486.4 486.4z m50.176-701.952c0-27.648-22.528-50.176-50.176-50.176s-50.176 22.528-50.176 50.176V429.056c0 27.648 22.528 50.176 50.176 50.176s50.176-22.528 50.176-50.176v-260.608zM512 529.408c-33.28 0-60.416 27.136-60.416 60.416S478.72 650.24 512 650.24s60.416-27.136 60.416-60.416-27.136-60.416-60.416-60.416z"  horiz-adv-x="1024" />

    
    <glyph glyph-name="qq-" unicode="&#58935;" d="M512-106.496c270.848 0 490.496 219.648 490.496 490.496S782.848 874.496 512 874.496C245.248 874.496 28.16 660.992 21.504 395.776v-23.552c6.656-265.216 223.744-478.72 490.496-478.72z m-221.696 455.168c9.728 19.456 21.504 35.84 33.792 48.64-3.584 7.168-5.632 15.872-5.632 25.088 0 14.336 4.608 27.648 12.288 34.816 0.512 0.512 1.024 1.024 2.048 1.536-1.536 9.216-2.048 18.944-2.048 28.672 0 101.376 83.456 183.808 185.344 183.808 102.912 0 185.344-82.432 185.344-183.808 0-8.192-0.512-16.896-1.536-25.088 4.096 0 8.704-2.048 12.288-5.632 7.68-7.168 12.288-20.48 12.288-34.816s-4.608-27.648-12.288-34.816c-0.512-0.512-1.536-1.024-2.048-1.536 10.24-13.312 19.968-30.208 27.136-48.128 22.528-53.248 13.824-109.056 1.536-111.616-10.24-1.536-29.696 15.36-48.64 41.472-4.096-28.672-17.92-55.296-38.912-76.8 35.328-11.264 59.392-33.28 56.32-54.784-3.584-27.136-48.128-44.032-99.328-37.376-36.352 4.608-66.56 19.968-79.872 37.888-5.12-0.512-10.752-0.512-16.384-0.512h-9.216c-12.8-18.432-44.032-33.792-82.432-37.888-53.248-6.144-98.816 11.264-102.912 38.4-3.584 20.992 20.48 41.984 56.832 53.248-22.016 22.016-36.352 49.664-39.936 79.872-21.504-26.112-43.52-40.448-51.712-35.328-14.848 9.216-17.92 62.464 7.68 114.688z"  horiz-adv-x="1024" />

    
    <glyph glyph-name="huiyuan-" unicode="&#58936;" d="M516.378624-67.584c-29.696 0-59.392 11.776-81.92 31.744l-0.512 0.512-5.12 5.12L32.538624 388.608c-40.96 45.056-43.52 113.152-6.144 158.208l195.072 242.688c23.552 29.184 57.856 46.08 94.208 46.08h393.728c35.84 0 71.68-17.408 94.208-46.08L998.682624 546.816c36.864-47.104 33.792-114.176-7.68-159.744L604.442624-29.696c-20.992-22.528-49.664-35.84-83.456-37.888h-4.608zM502.042624 37.888c5.12-3.584 10.752-5.632 15.872-5.632 5.632 0 10.752 2.048 14.848 6.656L919.322624 455.68c8.192 9.728 7.168 22.016 2.56 30.72l-194.56 242.176c-4.608 5.632-11.264 9.216-17.92 9.216H315.674624c-6.656 0-13.312-3.584-17.92-9.216L104.730624 485.376c-6.656-8.704-6.656-20.48 0.512-27.648l396.8-419.84zM516.378624 182.784c-21.504 0-41.984 8.192-57.344 22.528l-4.096 4.096-192 202.752c-8.192 9.216-12.8 22.016-12.288 34.816 0.512 13.312 5.632 25.6 15.36 34.304 9.728 8.704 21.504 13.312 33.792 13.312 13.312 0 26.624-5.632 36.352-15.36l180.224-189.952 174.592 186.368c10.752 10.752 24.064 16.384 37.888 16.384 11.776 0 22.528-4.096 32.256-11.264l0.512-0.512c9.728-8.704 15.36-20.48 15.36-34.304 0.512-12.8-4.096-25.6-12.288-34.816L578.842624 209.408c-16.896-16.896-39.424-26.624-62.464-26.624z"  horiz-adv-x="1024" />

    
    <glyph glyph-name="weixin-" unicode="&#58937;" d="M512 873.984C241.152 873.984 22.016 654.848 22.016 384c0-270.848 219.648-489.984 489.984-489.984 270.848 0 489.984 219.648 489.984 489.984 0 270.848-219.136 489.984-489.984 489.984zM422.912 268.8c-26.624 0-47.616 5.632-74.24 10.752l-74.24-36.864 20.992 63.488C243.2 343.04 211.456 390.656 211.456 449.024c0 100.864 95.232 180.224 211.968 180.224 103.936 0 195.584-63.488 213.504-148.992-6.656 1.024-13.824 1.024-20.48 1.536-100.352 0-180.224-75.264-180.224-167.424 0-15.36 2.56-30.208 6.656-44.544-6.656-1.024-13.312-1.024-19.968-1.024z m312.832-74.24l15.872-52.736-57.856 31.744c-20.992-5.12-42.496-10.752-63.488-10.752-100.864 0-180.224 68.608-180.224 153.6 0 84.48 79.36 153.6 180.224 153.6 95.232 0 179.712-69.12 179.712-153.6 0-47.616-31.744-90.112-74.24-121.856zM502.272 485.888c15.872 0 26.624 10.752 26.624 26.624s-10.752 26.624-26.624 26.624-31.744-10.24-31.744-26.624c0-15.872 16.384-26.624 31.744-26.624zM354.304 538.624c-15.872 0-31.744-10.752-31.744-26.624s15.872-26.624 31.744-26.624 26.624 10.752 26.624 26.624c0 16.384-10.752 26.624-26.624 26.624z m217.088-153.6c-10.24 0-20.992-10.752-20.992-20.992 0-10.752 10.752-20.992 20.992-20.992 15.872 0 26.624 10.24 26.624 20.992 0 10.752-10.752 20.992-26.624 20.992z m116.736 0c-10.24 0-20.992-10.752-20.992-20.992 0-10.752 10.752-20.992 20.992-20.992 15.872 0 26.624 10.24 26.624 20.992-0.512 10.752-10.752 20.992-26.624 20.992z m0 0"  horiz-adv-x="1024" />

    
    <glyph glyph-name="xianshang1" unicode="&#58938;" d="M83.456 542.2080000000001l390.144-390.656c10.752-10.752 24.576-15.872 38.4-15.36 13.824 0 27.648 4.608 38.4 15.36l390.144 390.144c20.48 20.48 20.48 54.784 0 75.264s-54.784 20.48-75.264 0l-353.28-353.28-353.28 353.28c-20.48 20.48-54.784 20.48-75.264 0-20.992-20.48-20.992-53.76 0-74.752z"  horiz-adv-x="1024" />

    
    <glyph glyph-name="bofang-" unicode="&#58939;" d="M851.968 482.304l-547.84 343.552c-76.288 48.128-175.616-7.168-175.616-97.28v-689.664c0-90.112 99.328-145.408 176.128-96.768l547.84 346.112c71.168 45.056 71.168 149.504-0.512 194.048z m-125.44-131.584L312.32 95.23199999999997c-26.624-16.384-61.44 2.56-61.44 34.304V638.4639999999999c0 31.232 34.304 50.688 61.44 34.304l414.208-253.44c25.088-15.872 25.6-52.736 0-68.608z"  horiz-adv-x="1024" />

    
    <glyph glyph-name="xiazai-" unicode="&#58940;" d="M369.152 510.976c-20.992 20.992-55.808 20.992-76.8 0s-20.992-55.808 0-76.8l181.248-181.248c1.536-1.536 2.56-2.56 4.096-3.584a52.61824 52.61824 0 0 1 67.584 0c1.536 1.024 2.56 2.56 4.096 3.584l181.248 181.248c20.992 20.992 20.992 55.808 0 76.8s-55.808 20.992-76.8 0l-88.576-88.576V799.744c0 29.696-24.576 54.272-54.272 54.272S456.704 829.44 456.704 799.744v-377.344L369.152 510.976zM720.384 854.016h-36.352c-28.672 0-52.224-23.552-52.224-52.224s23.552-52.224 52.224-52.224h30.72c87.04 0 158.208-71.168 158.208-158.208v-414.72c0-87.04-71.168-158.208-158.208-158.208H309.248c-87.04 0-158.208 71.168-158.208 158.208v414.72c0 87.04 71.168 158.208 158.208 158.208h30.72c28.672 0 52.224 23.552 52.224 52.224S369.152 854.016 339.968 854.016h-36.352c-143.36 0-260.608-117.248-260.608-260.608v-418.816c0-143.36 117.248-260.608 260.608-260.608h416.768c143.36 0 260.608 117.248 260.608 260.608V593.408c0 143.36-117.248 260.608-260.608 260.608z"  horiz-adv-x="1024" />

    
    <glyph glyph-name="hongbao-" unicode="&#58941;" d="M919.552 741.888c0 5.632-1.024 11.264-2.56 15.872-10.752 57.344-59.392 97.792-120.832 97.792h-568.32c-61.44 0-109.568-40.448-120.832-97.792-1.536-5.12-2.56-10.24-2.56-15.872V30.720000000000027c0-70.144 52.736-118.272 123.392-118.272h568.832c70.144 0 123.392 48.128 123.392 118.272V732.16v4.608c-0.512 2.048-0.512 3.584-0.512 5.12zM227.84 760.832h568.832c12.288 0 25.088-11.264 27.648-23.552-8.704-37.376-125.952-99.84-312.32-99.84S208.384 699.904 199.68 737.28c3.072 12.288 15.872 23.552 28.16 23.552z m568.32-758.272h-568.32c-13.824 0-28.672 14.848-28.672 28.672V611.328C278.528 566.2719999999999 397.312 542.72 512 542.72c100.352 0 200.704 18.432 275.456 50.176 13.312 5.632 26.112 11.776 37.376 18.432V30.720000000000027c0-13.312-10.752-28.16-28.672-28.16zM691.2 458.752c0 11.264-4.608 22.016-13.312 29.184-17.92 15.872-45.056 15.872-62.976 0L512 392.704 409.6 487.424c-17.92 15.872-45.056 15.872-62.976 0-8.704-7.168-13.824-17.408-13.824-28.672 0-11.264 4.608-22.016 13.312-29.184L414.72 365.568h-37.376c-24.576 0-44.544-19.968-44.544-44.544 0-24.576 19.968-44.544 44.544-44.544h89.6v-44.544H377.344c-24.576 0-44.544-19.968-44.544-44.544 0-24.576 19.968-44.544 44.544-44.544h89.6v-44.544c0-24.576 19.968-44.544 44.544-44.544 24.576 0 44.544 19.968 44.544 44.544v44.544h89.6c24.576 0 44.544 19.968 44.544 44.544 0 24.576-19.968 44.544-44.544 44.544h-89.6V276.48h89.6c24.576 0 44.544 19.968 44.544 44.544 0 24.576-19.968 44.544-44.544 44.544h-37.376l69.12 63.488c9.216 7.68 13.824 18.432 13.824 29.696z"  horiz-adv-x="1024" />

    
    <glyph glyph-name="weixin-1" unicode="&#58942;" d="M147.18293333 227.77173333999997l-36.0448-108.1344L237.29493333 182.44266667c44.78293333-8.73813333 81.37386667-18.0224 126.1568-18.0224 11.4688 0 22.39146667 0.54613333 33.86026667 1.6384-7.09973333 24.02986667-10.92266667 49.152-10.92266667 75.3664-0.54613333 157.2864 134.3488 285.0816 305.83466667 285.0816 11.4688 0 23.48373333-0.54613333 34.95253333-2.18453333-31.1296 145.27146667-186.23146667 252.85973333-363.7248 252.85973333-198.2464 0-360.448-134.89493333-360.448-306.3808 0-98.85013333 54.0672-180.224 144.1792-243.02933333z m351.16373334 396.4928c27.30666667 0 45.32906667-18.0224 45.32906666-44.78293334 0-26.76053333-18.0224-44.78293333-45.32906666-44.78293333-26.76053333 0-54.0672 18.0224-54.0672 44.78293333 0 26.76053333 27.30666667 44.78293333 54.0672 44.78293334z m-252.3136 0c26.76053333 0 44.78293333-18.0224 44.78293333-44.78293334 0-26.76053333-18.0224-44.78293333-44.78293333-44.78293333-27.30666667 0-54.0672 18.0224-54.0672 44.78293333 0 26.76053333 27.30666667 44.78293333 54.0672 44.78293334zM408.23466667 245.79413334000003c0-144.1792 134.89493333-261.59786667 306.3808-261.59786667 36.0448 0 72.0896 8.73813333 108.1344 18.0224l98.85013333-54.0672-27.30666667 90.112c72.63573333 54.0672 126.1568 126.1568 126.1568 207.53066667 0 144.1792-144.1792 261.59786667-305.83466666 261.59786666-171.48586667-0.54613333-306.3808-117.9648-306.3808-261.59786666z m207.53066666 44.78293333c-18.0224 0-36.0448 18.0224-36.0448 36.0448s18.0224 36.0448 36.0448 36.0448c27.30666667 0 45.32906667-18.0224 45.32906667-36.0448-0.54613333-18.0224-18.0224-36.0448-45.32906667-36.0448z m197.70026667 72.0896c27.30666667 0 45.32906667-18.0224 45.32906667-36.0448s-18.0224-36.0448-45.32906667-36.0448c-17.47626667 0-36.0448 18.0224-36.0448 36.0448 0.54613333 18.0224 18.56853333 36.0448 36.0448 36.0448z"  horiz-adv-x="1024" />

    
    <glyph glyph-name="daohang-" unicode="&#58944;" d="M128 675.84h768c32.256 0 58.88 26.624 58.88 58.88S928.256 793.6 896 793.6H128c-32.256 0-58.88-26.624-58.88-58.88S95.744 675.84 128 675.84zM896 92.15999999999997H128c-32.256 0-58.88-26.624-58.88-58.88S95.744-25.600000000000023 128-25.600000000000023h768c32.256 0 58.88 26.624 58.88 58.88S928.256 92.15999999999997 896 92.15999999999997zM896 442.88H128c-32.256 0-58.88-26.624-58.88-58.88s26.624-58.88 58.88-58.88h768c32.256 0 58.88 26.624 58.88 58.88s-26.624 58.88-58.88 58.88z"  horiz-adv-x="1024" />

    
    <glyph glyph-name="tuichu-" unicode="&#58950;" d="M572.16 241.664a54.3232 54.3232 0 0 1 76.8-76.8l181.248 181.248a25.6 25.6 0 0 1 3.584 4.096 52.5824 52.5824 0 0 1 0 67.584c-1.024 1.536-2.56 2.56-3.584 4.096l-181.248 181.248a54.6816 54.6816 0 0 1-76.8 0 54.6816 54.6816 0 0 1 0-76.8l88.576-88.576h-377.344a54.272 54.272 0 1 1 0-108.544h377.344zM721.408 852.992H302.592A261.12 261.12 0 0 1 41.984 592.384v-416.768a261.12 261.12 0 0 1 260.608-260.608h418.816a261.12 261.12 0 0 1 260.608 260.608v36.352a52.224 52.224 0 0 1-104.448 0v-30.72a158.72 158.72 0 0 0-158.208-158.208h-414.72a158.72 158.72 0 0 0-158.208 158.208V586.752a158.72 158.72 0 0 0 158.208 158.208h414.72a158.72 158.72 0 0 0 158.208-158.208v-30.72a52.224 52.224 0 0 1 104.448 0v36.352a261.12 261.12 0 0 1-260.608 260.608z"  horiz-adv-x="1024" />

    
    <glyph glyph-name="pianku-" unicode="&#58951;" d="M538.624 510.464L360.96 622.0799999999999c-17.408 10.752-40.448 5.632-51.2-11.776-3.584-6.144-5.632-12.8-5.632-19.968v-223.744c0-20.48 16.896-37.376 37.376-37.376 7.168 0 13.824 2.048 19.968 5.632l178.176 112.128c17.408 10.752 23.04 33.792 11.776 51.2-3.584 5.12-7.68 9.216-12.8 12.288zM711.168 875.008h-583.68c-60.416-0.512-109.056-49.152-109.568-109.568v-578.048c0.512-60.416 49.152-109.056 109.568-109.568H711.68c60.416 0.512 109.056 49.152 109.568 109.568v578.56c-1.024 59.904-49.664 108.544-110.08 109.056z m0-633.856c0-29.184-23.552-53.248-52.736-53.76H180.736c-29.184 0-53.248 23.552-53.76 52.736V711.6800000000001c0 29.184 23.552 53.248 52.736 53.76h477.696c29.184 0 53.248-23.552 53.76-52.736v-471.552zM896.512 55.80799999999999c0-29.184-23.552-53.248-52.736-53.76H256.512c-30.208 0-54.784-24.576-54.784-54.784 0-30.208 24.576-54.784 54.784-54.784h640.512c60.416 0 109.568 49.152 109.568 109.568V634.88c0 30.208-24.576 54.784-54.784 54.784-30.208 0-54.784-24.576-54.784-54.784l-0.512-579.072z"  horiz-adv-x="1024" />

    
    <glyph glyph-name="zongyi" unicode="&#58952;" d="M1004.032 714.24C993.28 805.888 914.944 875.52 822.272 876.032c-8.192 0-16.896-0.512-25.088-1.536-56.832-7.68-105.472-40.96-133.632-88.064-47.616 16.384-98.304 25.6-151.552 25.6-53.248 0-103.936-9.216-151.552-25.6-28.16 47.104-76.8 80.896-133.632 88.064-8.704 1.024-16.896 1.536-25.088 1.536C109.056 875.52 30.72 805.888 19.968 714.24c-8.192-65.536 20.48-129.536 71.168-168.448-26.112-58.88-38.912-124.928-38.912-194.048 0-253.952 205.824-459.776 459.776-459.776 253.952 0 459.776 205.824 459.776 459.776 0 67.072-14.336 133.632-40.448 192.512 51.712 38.912 80.896 103.936 72.704 169.984zM512 4.096000000000004c-192 0-347.648 155.648-347.648 347.648 0 61.952 13.824 121.856 41.472 172.544 8.704 7.68 14.848 17.92 16.896 29.696 5.12 28.16-12.8 55.296-40.448 60.928C143.872 624.64 118.784 662.016 123.392 701.44c4.608 39.424 38.4 69.632 78.336 69.632 3.584 0 7.168 0 10.752-0.512 35.328-4.608 63.488-32.768 68.096-68.096 3.072-23.552 21.504-41.984 45.056-45.056 4.608-0.512 9.216-0.512 13.824 0 7.168 1.024 13.824 3.072 19.968 6.656 46.08 22.528 97.792 35.328 152.064 35.328 55.808 0 108.544-13.312 155.136-36.864 5.12-2.56 11.264-4.608 17.408-5.12 4.608-0.512 9.216-0.512 13.824 0 23.552 3.072 41.984 21.504 45.056 45.056 4.608 35.328 32.768 63.488 68.096 68.096 3.584 0.512 7.168 0.512 10.752 0.512 39.936 0 73.728-30.208 78.336-69.632 4.608-39.424-20.48-76.288-58.88-86.528-27.648-5.632-46.08-33.28-40.448-60.928 2.048-10.24 6.656-18.944 13.312-25.6 28.672-51.2 45.568-114.176 45.568-176.64 0-192-155.648-347.648-347.648-347.648zM689.664 341.504c-22.528 0-41.984-14.848-48.128-36.352-15.872-55.296-66.56-95.744-126.976-95.744s-111.104 40.448-126.976 95.744c-6.144 21.504-25.6 36.352-48.128 36.352-32.768 0-57.344-31.232-48.64-63.488 27.648-97.792 117.248-169.472 223.744-169.472 106.496 0 196.096 71.68 223.744 169.472 8.704 32.256-15.872 63.488-48.64 63.488z"  horiz-adv-x="1024" />

    
    <glyph glyph-name="dianshiju" unicode="&#58953;" d="M786.944 875.008H237.056C117.76 875.008 20.48 777.728 20.48 658.432V312.32000000000005c0-119.296 97.28-216.576 216.576-216.576h549.376c119.296 0 216.576 97.28 216.576 216.576V658.944c0 118.784-97.28 216.064-216.064 216.064z m103.424-560.64c0-60.416-49.152-109.568-109.568-109.568h-537.6c-60.416 0-109.568 49.152-109.568 109.568V656.896c0 60.416 49.152 109.568 109.568 109.568h537.6c60.416 0 109.568-49.152 109.568-109.568v-342.528zM730.112 2.048000000000002H293.888c-30.208 0-54.784-24.576-54.784-54.784 0-30.208 24.576-54.784 54.784-54.784h436.736c30.208 0 54.784 24.576 54.784 54.784-0.512 30.208-25.088 54.784-55.296 54.784zM671.232 571.904L477.696 679.936c-14.848 8.192-31.232 12.8-48.128 12.8-17.408 0-34.304-4.608-49.664-13.824-30.208-17.92-48.64-49.664-48.64-84.992v-215.552c0-35.328 17.92-67.072 48.64-84.992 15.36-9.216 32.256-13.824 49.664-13.824 16.896 0 33.28 4.096 47.616 12.288L670.72 399.872c31.232 17.408 50.688 50.176 50.688 86.016s-19.456 68.608-50.176 86.016z m-76.288-105.472L466.432 395.776c-14.848-8.192-33.28 2.56-33.28 19.968V556.544c0 16.896 18.432 28.16 33.28 19.968l128.512-70.656c15.872-8.704 15.872-31.232 0-39.424z"  horiz-adv-x="1024" />

    
    <glyph glyph-name="dianying" unicode="&#58954;" d="M786.944 845.312H237.056C117.76 845.312 20.48 748.032 20.48 628.736v-489.984c0-119.296 97.28-216.576 216.576-216.576h549.376c119.296 0 216.576 97.28 216.576 216.576V628.736c0 119.296-97.28 216.576-216.064 216.576z m103.424-704c0-60.416-49.152-109.568-109.568-109.568h-537.6c-60.416 0-109.568 49.152-109.568 109.568V626.688C133.632 669.696 158.72 706.56 194.56 724.48l79.872-95.744c19.456-23.04 53.76-26.112 76.8-6.656s26.112 53.76 6.656 76.8L327.68 736.256h75.264l89.6-107.52c19.456-23.04 53.76-26.112 76.8-6.656s26.112 53.76 6.656 76.8l-31.232 37.376h75.264l89.6-107.52c19.456-23.04 53.76-26.112 76.8-6.656s26.112 53.76 6.656 76.8l-31.232 37.376h17.92c60.416 0 109.568-49.152 109.568-109.568v-485.376zM671.744 434.688l-193.536 107.52c-14.848 8.192-31.232 12.8-48.128 12.8-17.408 0-34.304-4.608-49.664-13.824-30.208-17.92-48.64-49.664-48.64-84.992V240.64c0-35.328 17.92-67.072 48.64-84.992 15.36-9.216 32.256-13.824 49.664-13.824 16.896 0 33.28 4.096 47.616 12.288l193.536 108.032c31.232 17.408 50.688 50.176 50.688 86.016 0.512 35.84-18.944 68.608-50.176 86.528z m-75.776-105.472l-128.512-70.656c-14.848-8.192-33.28 2.56-33.28 19.968V419.328c0 16.896 18.432 28.16 33.28 19.968l128.512-70.656c15.36-8.704 15.36-31.232 0-39.424z"  horiz-adv-x="1024" />

    
    <glyph glyph-name="maikefeng" unicode="&#58955;" d="M896 772.608c-139.776 139.776-365.568 139.776-505.344 0C315.904 697.856 281.088 598.0160000000001 286.72 500.224l-227.84-373.76c-2.048-3.072-3.584-6.656-4.608-10.24-17.408-37.376-17.408-80.896-1.024-118.272l-13.824-13.824c-20.992-20.992-20.992-55.296 0-75.776l1.536-1.536c20.992-20.992 55.296-20.992 75.776 0l14.848 14.848c36.864-14.848 78.848-14.336 115.2 2.56 3.584 1.024 7.168 2.56 10.24 4.608l378.88 230.912c2.048 1.024 3.584 2.56 5.632 3.584 92.16-0.512 184.32 34.304 254.464 104.448 139.264 139.264 139.264 365.568 0 504.832z m-78.336-78.336c82.944-82.944 94.208-209.92 34.304-305.152l-47.616 47.616c-20.992 20.992-55.296 20.992-75.776 0l-1.536-1.536c-20.992-20.992-20.992-55.296 0-75.776l47.616-47.616c-95.232-59.904-222.208-48.64-305.152 34.304-82.944 82.944-94.208 209.92-34.304 305.152l167.936-167.936c20.992-20.992 55.296-20.992 75.776 0l1.536 1.536c20.992 20.992 20.992 55.296 0 75.776L512 728.576c95.232 59.904 222.72 48.64 305.664-34.304zM422.912 159.74400000000003l-41.984 41.984c-20.992 20.992-55.296 20.992-75.776 0l-1.536-1.536c-20.992-20.992-20.992-55.296 0-75.776l23.04-23.04-125.952-76.8c-1.536-1.024-2.56-1.536-4.096-2.56-12.288-3.584-25.6-0.512-35.328 8.704s-12.288 23.04-8.704 35.328c1.024 1.536 2.048 2.56 2.56 4.096L327.68 353.28c16.384-30.72 37.376-59.392 63.488-85.504 28.672-28.672 61.44-51.712 96.256-68.608l-64.512-39.424z"  horiz-adv-x="1024" />

    
    <glyph glyph-name="zhuanti-" unicode="&#58956;" d="M375.296 407.04h273.92c30.208 0 54.784 24.576 54.784 54.784v3.072c0 30.208-24.576 54.784-54.784 54.784H375.296c-30.208 0-54.784-24.576-54.784-54.784v-3.072c0-30.208 24.576-54.784 54.784-54.784zM900.608 848.384c-11.264 11.264-26.112 17.408-42.496 17.408H165.376c-15.872 0-31.232-6.144-42.496-17.408-11.264-11.264-17.408-26.112-17.408-42.496v-843.776c0-20.992 11.264-40.96 29.696-51.712 9.216-5.12 19.456-8.192 30.208-8.192 10.24 0 20.48 2.56 29.696 7.68l316.928 181.248 316.928-181.248c9.216-5.12 19.456-7.68 29.696-7.68 32.768 0 59.904 26.624 59.904 59.904V805.888c-0.512 15.872-6.656 31.232-17.92 42.496z m-98.304-787.456l-260.096 148.48c-9.216 5.12-19.456 8.192-30.208 8.192-10.752 0-20.992-2.56-30.208-8.192l-260.096-148.48V750.08h580.096v-689.152z"  horiz-adv-x="1024" />

    
    <glyph glyph-name="jubao-" unicode="&#58957;" d="M855.552 306.176c-3.3792 12.4928-11.1616 40.5504-17.92 58.4704 11.264 11.1104 11.9296 14.2848 10.8032 18.8928v0.768l-0.3072 0.7168c-1.6384 3.8912-3.4816 8.2944-36.864 17.5104-20.7872 5.7344-48.64 11.7248-78.336 16.896a1493.6064 1493.6064 0 0 1-252.5184 21.5552c-127.6416 0-241.8176-16.9472-339.3536-50.3808l-14.08-4.8128 9.7792-11.2128c0-0.256 4.8128-5.4784 13.6192-13.7216a151.9616 151.9616 0 0 1-22.016-56.32c-81.6128-31.4368-77.9776-84.992-76.3904-108.1856v-3.4816c5.8368-102.0416 113.5616-123.5456 138.24-127.1296 18.3808-26.4192 127.0784-170.9568 303.5648-170.9568 175.104 0 277.504 145.3568 295.4752 173.056 26.1632 3.1744 141.6704 23.04 146.2784 127.1808 2.9184 74.5472-47.616 104.2944-79.9744 111.1552z m-15.36-106.8544c-1.1264-25.6-44.9536-35.1232-62.6688-36.9152l-44.4416-2.8672-22.9376-38.144c-0.8192-1.3312-82.8416-131.2768-216.6272-131.2768-136.2432 0-225.6384 130.4064-226.4576 131.584l-22.6304 34.7648-41.216 3.584c-0.5632 0-54.3744 5.9392-56.32 38.3488l-0.6144 9.4208a80.5376 80.5376 0 0 0 19.5072 9.3184L218.2656 235.52l4.0448 55.5008c0 0.7168 0.8192 7.424 11.8272 24.4224l14.1824-7.0656c8.3456-5.12 16.7936-10.8032 25.6-16.6912 51.2-33.8944 114.8928-76.1344 217.3952-77.568h5.12c101.376 0 168.3968 44.032 222.208 79.36 9.8304 6.4512 19.0976 12.544 28.1088 18.0736l7.168 3.4304c3.6352-11.6736 7.8848-26.4704 11.1616-39.168l14.592-56.064 57.4976-7.0144c2.5088-0.2048 3.2256-7.1168 2.9696-13.4656zM408.1152 677.6832c0-19.456 14.2848-61.44 68.6592-81.92l17.92-5.8368 17.3056 6.2976a99.9936 99.9936 0 0 1 64.1024 83.0464v0.3072l0.8192 44.4928H408.1152zM990.3616 653.2096a52.4288 52.4288 0 0 1-32.4608 35.84c-2.6624 1.1264-14.6944 6.5536-26.1632 11.776-352.1024 158.72-406.6304 172.2368-432.4864 172.2368-46.7968-0.5632-261.5296-100.6592-433.408-184.32l-0.5632-0.3072c-25.9584-14.6944-43.264-46.08-26.2144-77.9776 3.84-7.0144 11.008-17.6128 25.344-38.4512l1.2288-1.8432c11.264-16.4864 24.064-35.1744 30.72-46.7456a261.12 261.12 0 0 0 19.7632-51.5584l0.3072-1.0752s1.1264-3.9424 1.4336-5.12l11.52-44.0832 46.4896 12.3392 6.9632 1.28a1411.4304 1411.4304 0 0 0 311.1936 33.7408 1248.768 1248.768 0 0 0 310.9888-37.4272l51.2-13.2096 7.1168 49.664a40.96 40.96 0 0 0 1.792 6.9632l0.768 2.2016q1.2288 3.328 2.9184 6.8096l0.768 1.6384a230.4 230.4 0 0 0 42.4448 54.9888l63.9488 64.0512c5.0176 5.2224 20.3776 23.808 14.3872 48.5888z m-145.3056-45.056a299.1104 299.1104 0 0 1-57.6-74.5472 1368.7808 1368.7808 0 0 1-293.4272 30.72 1573.5296 1573.5296 0 0 1-241.7664-18.7904c-19.5072-3.0208-38.6048-6.4512-56.8832-10.24a240.0768 240.0768 0 0 1-17.0496 36.4544c-5.5808 9.3696-13.056 20.8896-26.7264 40.96l-5.888 8.6528c188.672 91.0848 332.8 153.1904 353.536 156.2112l5.9392-1.4848c12.3392-3.2768 31.0272-9.728 55.5008-19.0976 62.208-23.808 161.4336-66.56 303.2064-130.1504z"  horiz-adv-x="1024" />

    
    <glyph glyph-name="zan-" unicode="&#58958;" d="M64.8192 512.8704A49.6128 49.6128 0 0 1 15.36 463.3088v-463.0016a49.5616 49.5616 0 0 1 99.1232 0V463.3088a49.6128 49.6128 0 0 1-49.664 49.5616zM977.92 447.8976c-50.3808 72.0896-139.8784 75.7248-157.3376 75.7248H724.48l3.328 7.3728c46.4384 103.5776 40.192 187.1872 40.192 187.648v0.9216a156.0064 156.0064 0 0 1-266.8544 109.5168 148.48 148.48 0 0 1-44.4416-105.728C445.0816 568.32 278.6304 530.432 245.3504 524.4416a51.2 51.2 0 0 1-40.96-50.3296v-460.0832a49.2032 49.2032 0 0 1 41.8816-48.896l452.7104-71.0144c9.472-0.9216 19.1488-1.3824 28.7232-1.3824 124.9792 0 174.6432 86.5792 183.3472 120.3712l71.68 199.68C1018.88 312.32 1017.344 391.2704 977.92 447.8976z m-88.2176-201.4208l-72.9088-204.1344c0-0.512-13.6704-50.5856-88.832-50.5856-6.1952 0-12.4928 0.3072-16.128 0.6144L303.616 56.32V436.3776l3.7376 1.1264c54.528 15.9744 233.6256 83.6608 248.32 282.1632a56.6272 56.6272 0 0 0 56.32 56.576c32.2048 0 56.6272-26.0608 56.7296-60.2112 0-1.024 6.6048-104.96-71.2192-212.992a49.5616 49.5616 0 0 1 40.2432-78.4896h182.9376c0.512 0 52.7872-0.9216 75.52-33.3824 19.712-27.648 17.2544-79.1552-6.7072-144.6912z"  horiz-adv-x="1024" />

    
    <glyph glyph-name="dao-" unicode="&#58959;" d="M777.6256 802.9184L324.864 873.9328C315.392 874.8544 305.7152 875.52 296.192 875.52 171.1616 875.52 121.5488 788.7872 112.64 754.944l-71.68-199.68C5.12 455.68 6.656 376.7296 46.08 320.1024c50.3808-72.0896 139.8784-75.7248 157.3376-75.7248H299.52l-3.328-7.3728C249.7536 133.4272 256 49.8176 256 49.3568v-0.9216a156.0064 156.0064 0 0 1 266.8032-109.4656 148.48 148.48 0 0 1 44.4416 105.728c11.6224 155.2384 178.0736 192.9728 211.3536 198.912a51.2 51.2 0 0 1 40.96 50.3296V754.0224a49.2032 49.2032 0 0 1-41.9328 48.896z m-57.2416-471.04l-3.7376-1.1264c-54.528-15.9744-233.6256-83.6608-248.32-282.1632a56.6272 56.6272 0 0 0-56.32-56.576c-32.2048 0-56.6272 26.0608-56.7296 60.2112 0 1.024-6.6048 104.96 71.2192 212.992a49.5616 49.5616 0 0 1-40.2432 78.4896H203.0592c-0.512 0-52.7872 0.9216-75.52 33.3824-19.456 27.7504-16.9984 79.1552 6.9632 144.64l72.9088 203.8784c0 0.512 13.6704 50.5856 88.832 50.5856 6.1952 0 12.4928-0.3072 16.128-0.6144L720.384 711.68zM959.1808 817.2544a49.6128 49.6128 0 0 1-49.5616-49.5616v-463.0016a49.5616 49.5616 0 1 1 99.1232 0V767.6928a49.6128 49.6128 0 0 1-49.5616 49.5616z"  horiz-adv-x="1024" />

    
    <glyph glyph-name="dianshi-" unicode="&#58960;" d="M786.7392 696.7296h-13.1584l68.5568 87.6544a53.9136 53.9136 0 0 1-9.216 75.4688 53.9136 53.9136 0 0 1-75.4688-9.216l-119.9104-153.2416-0.4608-0.6656H386.9184l-0.4608 0.6656L266.5472 850.6368a53.9136 53.9136 0 0 1-75.4688 9.216 53.9136 53.9136 0 0 1-9.216-75.4688l68.5568-87.6544h-13.1584A217.1392 217.1392 0 0 1 20.7872 480.256v-366.9504a217.1392 217.1392 0 0 1 216.4736-216.4736h549.4784a217.1392 217.1392 0 0 1 216.4736 216.4736V480.256a217.1392 217.1392 0 0 1-216.4736 216.4736z m103.424-581.376a109.7216 109.7216 0 0 0-109.4144-109.4144h-537.6a109.7216 109.7216 0 0 0-109.4144 109.4144V478.208a109.7216 109.7216 0 0 0 109.5168 109.3632h537.6a109.7216 109.7216 0 0 0 109.312-109.3632zM457.0624 439.3984H243.2512a48.0256 48.0256 0 1 1 0-96H302.08V168.96000000000004a48.0256 48.0256 0 0 1 96 0v174.592h58.9824a48.0256 48.0256 0 1 1 0 96zM801.8432 435.2a47.2576 47.2576 0 0 1-20.9408 4.864 48.4864 48.4864 0 0 1-43.264-26.88l-61.44-131.9424-61.44 131.9424a48.4352 48.4352 0 0 1-42.9056 27.136 48.0256 48.0256 0 0 1-42.9568-69.0688l103.9872-224.0512a48.2816 48.2816 0 0 1 32.6656-25.6h0.768c1.4336-0.3072 2.8672-0.5632 4.3008-0.768s2.5088 0 3.7376-0.256h3.8912c1.28 0 2.56 0 3.7888 0.256s2.816 0.4096 4.1984 0.7168h1.024a48.384 48.384 0 0 1 32.6144 25.6l103.9872 224.0512a48.0768 48.0768 0 0 1-22.016 64z"  horiz-adv-x="1024" />

    
    <glyph glyph-name="jilu-" unicode="&#58961;" d="M1.024 608.768v-452.608c0-84.992 69.632-154.624 154.624-154.624h470.016c84.992 0 154.624 69.632 154.624 154.624V608.768c0 84.992-69.632 154.624-154.624 154.624H155.648C70.656 763.904 1.024 694.2719999999999 1.024 608.768z m622.592 41.984c26.112 0 47.616-21.504 47.616-47.616v-440.832c0-26.112-21.504-47.616-47.616-47.616h-465.92c-26.112 0-47.616 21.504-47.616 47.616V603.136c0 26.112 21.504 47.616 47.616 47.616h465.92zM254.464 552.448H363.52c30.208 0 54.784-24.576 54.784-54.784 0-30.208-24.576-54.784-54.784-54.784H254.464c-30.208 0-54.784 24.576-54.784 54.784 0 30.208 24.576 54.784 54.784 54.784zM950.272 592.896c-23.04 13.312-49.152 20.48-75.264 20.48-25.088 0-50.176-6.656-72.704-18.944L727.04 552.96v-132.608l120.832 66.56c30.72 16.896 68.608-5.12 68.608-40.448v-142.336c0-35.328-37.888-57.344-68.608-40.448l-120.832 66.56v-132.608l75.264-41.984c22.016-12.288 47.104-18.944 72.704-18.944 26.624 0 51.712 7.168 75.776 20.48 46.08 27.136 73.728 75.264 73.728 128.512v179.2c-0.512 53.248-28.16 101.376-74.24 128z"  horiz-adv-x="1024" />

    
    <glyph glyph-name="gengxin-" unicode="&#58962;" d="M513.024 875.52C241.664 875.52 22.016 655.36 22.016 384.512c0-271.36 220.16-491.008 491.008-491.008 271.36 0 491.008 220.16 491.008 491.008 0.512 271.36-219.648 491.008-491.008 491.008z m0-872.96c-210.944 0-381.952 171.008-381.952 381.952 0 210.944 171.008 381.952 381.952 381.952 210.944 0 381.952-171.008 381.952-381.952 0-210.944-171.008-381.952-381.952-381.952zM684.544 610.816c-29.696 0-54.272-24.576-54.272-54.272v-212.48l-250.368 250.88c-1.536 1.536-2.56 2.56-4.096 3.584a52.61824 52.61824 0 0 1-67.584 0c-1.536-1.024-2.56-2.56-4.096-3.584l-0.512-0.512-3.072-3.072c-0.512-0.512-1.024-1.024-1.536-2.048-0.512-1.024-1.024-1.536-2.048-2.56-0.512-0.512-0.512-1.024-1.024-1.536-0.512-1.024-1.024-2.048-2.048-3.072 0-0.512-0.512-0.512-0.512-1.024-3.584-7.168-6.144-15.872-6.144-24.576v-344.064c0-29.696 24.576-54.272 54.272-54.272s54.272 24.576 54.272 54.272V425.472l245.248-245.248c9.728-13.824 25.6-22.528 44.032-22.528 29.696 0 54.272 24.576 54.272 54.272V556.544c-0.512 29.696-25.088 54.272-54.784 54.272z"  horiz-adv-x="1024" />

    
    <glyph glyph-name="app-" unicode="&#58963;" d="M820.224 140.79999999999995c-28.16 0-50.688-22.528-50.688-50.688v-58.368c0-20.992-17.408-38.4-38.4-38.4H284.16c-20.992 0-38.4 17.408-38.4 38.4v58.368c0 28.16-22.528 50.688-50.688 50.688s-50.688-22.528-50.688-50.688v-58.368c0-77.312 62.976-139.776 139.776-139.776h446.976c77.312 0 139.776 62.976 139.776 139.776v58.368c0 28.16-23.04 50.688-50.688 50.688zM877.056 578.56h-106.496c-25.088 0-45.568-20.48-45.568-45.568V225.27999999999997c0-25.088 20.48-45.568 45.568-45.568s45.568 20.48 45.568 45.568v93.696h61.44c71.68 0 129.536 58.368 129.536 129.536 0 71.68-58.368 130.048-130.048 130.048z m0-168.96h-61.44V487.936h61.44c21.504 0 38.912-17.408 38.912-38.912 0.512-22.016-17.408-39.424-38.912-39.424zM449.536 578.56c-25.088 0-45.568-20.48-45.568-45.568V225.27999999999997c0-25.088 20.48-45.568 45.568-45.568s45.568 20.48 45.568 45.568v93.696h61.44c71.68 0 129.536 58.368 129.536 129.536 0 71.68-58.368 129.536-129.536 129.536L449.536 578.56z m145.92-129.536c0-21.504-17.408-38.912-38.912-38.912h-61.44V487.936h61.44c21.504 0 38.912-17.408 38.912-38.912zM288.768 211.96799999999996c7.168-16.384 23.552-26.624 41.472-26.624 6.656 0 12.8 1.536 18.432 4.096 11.264 5.12 19.456 13.824 23.552 25.088 4.096 11.264 4.096 23.552-1.024 34.816L236.032 548.864c-7.168 16.384-23.552 26.624-41.472 26.624s-33.792-10.752-41.472-26.624L18.944 248.832c-10.24-22.528 0-49.664 22.528-59.904 5.632-2.56 12.288-4.096 18.432-4.096 17.92 0 34.304 10.752 41.472 26.624l20.992 47.104h144.896l21.504-46.592z m-131.072 133.632L195.072 435.2l36.864-89.088-74.24-0.512zM195.072 624.1279999999999c28.16 0 50.688 22.528 50.688 50.688V738.816c0 20.992 17.408 38.4 38.4 38.4h446.976c20.992 0 38.4-17.408 38.4-38.4v-64.512c0-28.16 22.528-50.688 50.688-50.688s50.688 22.528 50.688 50.688V738.816c0 77.312-62.976 139.776-139.776 139.776H284.16c-77.312 0-139.776-62.464-139.776-139.776v-64.512c0-27.648 23.04-50.176 50.688-50.176z"  horiz-adv-x="1024" />

    
    <glyph glyph-name="jiaose-" unicode="&#58964;" d="M843.776-90.11199999999997H171.008c-65.536 0-114.688 50.176-114.688 116.224v4.096c0 78.336 11.264 141.312 67.584 213.504 8.704 10.752 17.92 21.504 27.648 31.232l2.048 1.536c30.208 28.672 93.696 77.312 179.712 77.312 67.072 0 105.984-38.912 167.424-125.952l5.12-7.168 4.608 5.632c3.072 4.096 7.168 9.216 11.264 14.848 31.232 40.448 46.08 58.368 65.536 75.776 28.16 25.088 55.808 36.864 84.992 36.864 62.976 0 139.264-30.72 182.272-73.728 74.24-74.24 113.664-161.28 113.664-251.904 0-4.096 0-4.608-0.512-8.192-6.144-62.976-58.368-110.08-121.344-110.08h-2.56z m-510.464 337.92c-41.472 0-82.432-24.576-107.008-48.128-7.168-7.168-13.312-14.336-19.456-21.504-33.792-43.008-45.056-80.384-45.056-147.968v-4.096c0-3.584 0.512-5.632 1.024-7.168l1.024-2.048 2.56-0.512c1.024-0.512 2.56-0.512 4.608-0.512h672.768c9.728 0 16.384 5.12 17.92 13.824v1.024c-0.512 77.312-45.568 137.728-82.432 175.104-19.968 19.968-67.584 41.984-105.984 42.496h-1.024l-1.024-0.512c-2.048-1.024-6.144-3.072-13.824-9.728-12.288-11.264-23.04-23.552-52.736-61.44-20.992-27.136-30.72-38.912-41.984-51.712-12.8-14.336-24.064-23.552-34.816-29.184l-27.648-14.848-27.136 17.408h-0.512c-10.24 7.168-18.944 15.36-26.624 25.088-11.776 13.824-22.528 28.672-32.768 44.032-40.96 58.88-62.976 80.384-79.872 80.384z m180.224 179.2c-114.176 0-230.4 7.168-344.576 20.992h-1.024c-24.576 4.096-46.592 17.408-61.952 36.864-5.632 6.144-26.624 65.536-19.456 105.984l5.12 45.056c7.168 48.128 48.64 84.48 97.28 84.48 2.56 0 5.12 0 7.68-0.512l52.736-5.12L266.752 803.84c5.12 31.744 32.256 54.272 64 54.272 2.56 0 5.632 0 8.192-0.512 58.368-6.656 117.76-9.728 176.128-9.728 58.88 0 118.272 3.072 176.64 9.728H697.856c31.744 0 58.368-22.528 63.488-53.76l17.408-88.576 50.176 4.608c4.096 0.512 7.68 0.512 11.264 0.512 49.152 0 90.624-35.328 98.304-83.968l9.216-45.056v-0.512c4.096-25.6-3.072-83.968-18.432-103.936-16.384-21.504-40.96-35.328-67.584-38.912-114.176-13.824-230.4-20.992-344.576-20.992h-3.584z m-287.232 184.32c-17.92 0-32.256-13.824-32.768-31.744-0.512-15.872 11.264-29.184 26.624-31.232C317.44 537.6 415.744 532.48 512.512 532.48h4.096c96.768 0 194.56 5.12 291.328 15.872 18.432 2.048 31.744 18.432 30.72 36.864-1.024 14.848-13.824 26.624-29.184 26.624h-2.56L742.4 605.184h-5.12c-25.6 0-47.616 18.944-50.688 44.544V650.24l-9.216 29.696-14.336 68.608-4.608-0.512c-47.104-4.096-95.232-6.144-142.336-6.144-48.128 0-96.768 2.048-144.384 6.144l-5.12 0.512-16.896-98.816c-4.608-25.6-26.624-44.544-52.736-44.544h-5.12l-61.952 5.632c-1.536 0.512-2.56 0.512-3.584 0.512z"  horiz-adv-x="1024" />

    
    <glyph glyph-name="xin-" unicode="&#58965;" d="M996.352 531.456c-18.432 136.192-125.44 243.2-260.608 260.096-12.288 1.536-24.064 2.048-36.352 2.048-67.584 0-131.584-20.992-184.832-60.928l-3.072-2.56-3.072 2.56c-53.248 40.448-116.224 61.44-181.76 61.44-13.312 0-26.112-1.024-39.424-2.56C153.6 774.656 44.544 665.6 27.648 531.456 15.36 436.736 46.592 344.576 113.152 278.01599999999996c14.848-14.848 122.368-110.08 261.12-233.472l58.368-52.224c22.528-18.944 49.664-29.184 77.824-29.184s55.296 10.24 77.824 28.672l0.512 0.512c111.616 99.328 299.52 265.728 320.512 283.648l0.512 0.512 1.024 1.024c66.56 67.072 97.792 159.232 85.504 253.952z m-167.424-174.08c-10.752-10.752-125.44-113.664-314.88-279.552l-3.584-2.56-3.584 3.072c-74.24 65.536-299.008 264.192-314.88 279.552-40.96 40.96-60.928 98.816-54.272 159.232C148.48 600.576 217.088 668.672 300.032 679.424c9.216 1.024 17.92 1.536 26.624 1.536 55.808 0 105.984-22.528 141.312-64 10.752-12.288 26.112-18.944 41.984-18.944s31.232 6.656 41.984 18.432c37.888 41.472 88.576 64 143.36 64 8.192 0 16.896-0.512 25.088-1.536 83.456-10.752 151.552-78.848 162.304-161.792 7.168-59.904-12.8-118.272-53.76-159.744z"  horiz-adv-x="1024" />

    
    <glyph glyph-name="yueliang-" unicode="&#58966;" d="M515.072-40.960000000000036c-38.4 0-76.288 5.12-112.64 15.36-36.864 10.24-71.168 24.576-101.888 42.496-30.72 18.432-59.904 40.448-86.016 66.56-26.112 26.112-48.64 54.784-66.56 86.016-17.92 30.72-32.256 65.024-42.496 101.888-10.24 36.864-15.36 74.752-15.36 113.152 0 38.4 5.12 76.288 15.36 112.64 10.24 36.864 24.576 71.168 42.496 101.888 17.92 30.72 40.448 59.904 66.56 86.016 26.112 26.112 54.784 48.64 86.016 66.56 31.232 18.432 65.536 32.768 101.888 42.496 36.352 10.24 74.24 15.36 112.64 15.36 9.728 0 19.456-0.512 28.672-1.024l18.944-1.536-8.192-17.408c-17.408-37.376-26.112-76.8-26.112-116.736 0-36.864 7.168-72.704 22.016-106.496 14.336-33.792 34.304-63.488 58.368-87.552 24.576-24.576 53.76-44.032 87.552-58.368 33.792-14.336 69.632-22.016 106.496-22.016 40.448 0 79.36 8.704 116.736 26.112l17.408 8.192 1.536-19.456c0.512-9.216 1.024-18.432 1.024-28.16 0-38.4-5.12-76.288-15.36-112.64-10.24-36.864-24.576-71.168-42.496-101.888-17.92-30.72-40.448-59.904-66.56-86.016-26.112-26.112-54.784-48.128-86.016-66.56-30.72-17.92-65.024-32.256-101.888-42.496-36.864-10.24-74.24-15.36-112.64-15.36h0.512zM413.184 683.008c-24.576-8.704-48.128-19.968-70.144-34.816-29.184-19.456-54.784-42.496-75.776-69.12-20.992-26.624-37.888-56.832-49.664-90.624-11.776-33.792-17.92-69.12-17.92-104.96 0-42.496 8.192-83.968 25.088-122.368 16.384-38.912 39.424-72.704 67.584-100.864 28.16-28.16 61.952-50.688 100.864-67.584 38.912-16.384 79.872-25.088 122.368-25.088 36.352 0 71.68 6.144 104.96 17.92 33.792 12.288 64.512 28.672 90.624 49.664 26.624 20.992 49.664 46.592 69.12 75.776 14.336 22.016 26.112 45.568 34.816 70.144l2.56 6.656h-13.312c-51.712 0-101.888 10.24-148.992 30.208-47.104 20.48-88.064 47.616-122.368 81.92-34.304 34.304-61.44 75.264-81.92 122.368s-30.72 97.28-30.72 148.992V684.544l-7.168-1.536z"  horiz-adv-x="1024" />

    
    <glyph glyph-name="taiyang-" unicode="&#58967;" d="M512-104.44799999999998c-15.36 0-29.184 5.632-39.936 16.384-10.752 10.752-16.384 24.576-16.384 39.936v65.536l-4.096 0.512c-44.032 7.168-86.528 22.016-125.44 45.056-10.24 6.144-19.968 12.288-29.696 19.456l-3.584 2.56-46.08-46.08c-10.752-10.752-24.576-16.896-39.936-16.896s-29.184 5.632-39.936 16.384c-10.752 10.752-16.384 24.576-16.384 39.936s5.632 29.184 16.384 39.936l46.08 46.08-2.56 3.584c-6.656 9.728-13.312 19.456-18.944 29.696-22.528 38.912-37.888 80.896-45.056 125.44l-0.512 4.096H79.872c-15.36 0-29.184 5.632-39.936 16.384-10.752 10.752-16.384 24.576-16.384 39.936s5.632 29.184 16.384 39.936c10.752 10.752 24.576 16.384 39.936 16.384h65.536l0.512 4.096c7.168 44.032 22.016 86.528 45.056 124.928 5.632 10.24 12.288 19.968 18.944 29.696l2.56 3.584-46.08 46.08c-10.752 10.752-16.384 24.576-16.384 39.936s5.632 29.184 16.384 39.936c10.752 10.752 24.576 16.384 39.936 16.384 14.848 0 28.672-5.632 39.936-16.384l46.08-46.08 3.584 2.56c9.728 6.656 19.456 13.312 29.696 19.456 38.912 22.528 81.408 37.888 125.44 45.056l4.096 0.512v66.56c0 15.36 5.632 29.184 16.384 39.936 11.264 10.752 24.576 16.384 39.936 16.384s28.672-5.632 39.936-16.384c11.264-11.264 16.896-24.576 16.896-39.936v-65.536l4.096-0.512c44.032-7.168 86.016-22.016 124.928-45.056 10.24-6.144 19.968-12.288 29.696-19.456l3.584-2.56 46.08 46.08c10.752 10.752 25.088 16.896 39.936 16.896 14.848 0 28.672-5.632 39.936-16.896 10.752-10.752 16.896-24.576 16.896-39.936s-5.632-29.184-16.896-39.936l-46.08-46.08 2.56-3.584c6.656-9.728 13.312-19.456 19.456-29.696 22.528-38.912 37.888-80.896 45.056-124.928l0.512-4.096h65.536c15.36 0 29.184-5.632 39.936-16.384 10.752-10.752 16.384-24.576 16.384-39.936s-5.632-29.184-16.896-39.936c-10.752-10.752-24.576-16.384-39.936-16.384h-65.536l-0.512-4.096c-7.168-44.032-22.016-86.528-45.056-125.44-6.144-10.24-12.288-19.968-18.944-29.696l-2.56-3.584 46.08-46.08c10.752-11.264 16.896-25.088 16.896-39.936 0-15.36-5.632-29.184-16.896-39.936-10.752-10.752-24.576-16.384-39.936-16.384s-29.184 5.632-39.936 16.896l-46.08 46.08-3.584-2.56c-9.728-6.656-19.456-13.312-29.696-19.456-38.912-22.528-80.896-37.888-125.44-45.056l-4.096-0.512v-65.536c0-15.36-5.632-29.184-16.384-39.936-10.24-11.776-24.064-17.408-39.424-17.408z m0 751.104c-73.728 0-134.656-25.6-186.88-77.312C272.896 517.12 247.808 455.68 247.808 381.952c0-73.728 25.088-134.656 77.312-186.88C377.344 143.36 438.272 117.75999999999999 512 117.75999999999999c73.728 0 134.656 25.088 186.88 77.312s77.312 113.152 77.312 186.88c0 73.728-25.088 134.656-77.312 186.88S585.728 646.656 512 646.656z"  horiz-adv-x="1024" />

    
    <glyph glyph-name="paixu-" unicode="&#58968;" d="M310.784 140.79999999999995c-1.024-0.512-1.536-1.536-2.56-2.56l-36.352-36.352v171.008c0 28.672-23.552 52.224-52.224 52.224s-52.224-23.552-52.224-52.224v-168.96L133.12 138.24c-20.992 19.968-53.76 19.456-74.24-1.536-19.456-20.48-19.456-52.224 0-72.704l116.224-116.224 1.024-1.536c0.512-1.024 1.024-1.536 1.536-2.56 0.512-1.024 1.024-1.024 1.536-1.536 0.512-0.512 2.048-2.048 2.56-3.072l0.512-0.512c1.024-1.024 2.56-2.56 4.096-3.584 10.752-8.704 24.576-12.8 38.4-11.264 16.896 1.024 31.744 10.24 40.448 24.576l116.736 116.224c20.992 19.968 22.016 52.736 2.56 74.24s-52.736 22.016-73.728 2.048zM133.12 629.248l34.304 34.304v-168.96c0-28.672 23.552-52.224 52.224-52.224S271.872 465.92 271.872 494.592V665.6l36.352-36.352c20.48-20.48 53.76-20.48 74.24 0s20.48 53.76 0 74.24L266.24 819.712c-8.704 14.336-24.064 23.552-40.448 24.576-13.824 1.536-27.648-2.56-38.4-11.264-1.536-1.024-2.56-2.048-4.096-3.584l-0.512-0.512c-1.024-1.024-2.048-2.048-2.56-3.072l-1.536-1.536c-0.512-0.512-1.024-1.536-1.536-2.56l-1.024-1.536-117.248-116.736c-19.456-20.992-18.432-54.272 2.56-74.24 19.968-18.944 51.712-18.944 71.68 0zM485.376 692.736H925.184c28.672-1.024 53.248 22.016 53.76 50.688 1.024 28.672-22.016 53.248-50.688 53.76H488.96c-28.672 1.024-53.248-22.016-53.76-50.688-1.024-28.672 21.504-52.736 50.176-53.76zM925.696 438.784H488.96c-28.672-1.024-51.712-25.088-50.688-53.76 1.024-27.648 23.04-49.664 50.688-50.688h436.736c28.672 0 52.224 23.552 52.224 52.224s-23.552 52.224-52.224 52.224zM928.768 79.87199999999996H488.96c-28.672-1.024-51.712-25.088-50.688-53.76 1.024-27.648 23.04-49.664 50.688-50.688h436.736c28.672-1.024 53.248 22.016 53.76 50.688 1.024 29.184-21.504 53.248-50.688 53.76z"  horiz-adv-x="1024" />

    
    <glyph glyph-name="bofang-1" unicode="&#58969;" d="M851.968 482.304l-547.84 343.552c-76.288 48.128-175.616-7.168-175.616-97.28v-689.664c0-90.112 99.328-145.408 176.128-96.768l547.84 346.112c71.168 45.056 71.168 149.504-0.512 194.048z"  horiz-adv-x="1024" />

    
    <glyph glyph-name="cuohao-" unicode="&#58970;" d="M615.424 384l261.632 261.632c28.672 28.672 28.672 74.752 0 103.424-13.824 13.824-32.256 21.504-51.712 21.504s-37.888-7.68-51.712-21.504L512 487.424 250.368 749.056c-13.824 13.824-32.256 21.504-51.712 21.504s-37.888-7.68-51.712-21.504c-28.672-28.672-28.672-74.752 0-103.424L408.576 384l-261.632-261.632c-28.672-28.672-28.672-74.752 0-103.424 13.824-13.824 32.256-21.504 51.712-21.504s37.888 7.68 51.712 21.504l261.632 261.632 261.632-261.632c13.824-13.824 32.256-21.504 51.712-21.504s37.888 7.68 51.712 21.504c28.672 28.672 28.672 74.752 0 103.424L615.424 384z"  horiz-adv-x="1024" />

    
    <glyph glyph-name="duihao-" unicode="&#58971;" d="M961.536 682.496c-13.824 13.824-32.256 21.504-51.712 21.504s-37.888-7.68-51.712-21.504L409.6 238.592 165.888 482.816c-13.824 13.824-32.256 21.504-51.712 21.504s-37.888-7.68-51.712-21.504c-28.672-28.672-28.672-75.264 0-103.424l288.768-288.768c5.12-5.12 10.752-9.216 16.896-12.288 12.288-9.216 27.136-13.824 43.008-13.824 19.456 0 37.888 7.68 51.712 21.504l498.688 493.568c28.672 28.16 28.672 74.752 0 102.912z"  horiz-adv-x="1024" />

    
    <glyph glyph-name="chongzhi-" unicode="&#58972;" d="M512 0c-211.968 0-384 172.544-384 384s172.544 384 384 384c211.968 0 384-172.544 384-384 0-29.696 24.064-53.76 53.76-53.76S1003.52 354.304 1003.52 384c0 270.848-220.672 491.52-491.52 491.52S20.48 654.848 20.48 384s220.672-491.52 491.52-491.52c29.696 0 53.76 24.064 53.76 53.76S541.696 0 512 0zM949.76 92.16H901.12v48.64c0 26.624-22.016 48.64-48.64 48.64s-48.64-22.016-48.64-48.64v-48.64h-48.64c-26.624 0-48.64-22.016-48.64-48.64s22.016-48.64 48.64-48.64h48.64v-48.64c0-26.624 22.016-48.64 48.64-48.64s48.64 22.016 48.64 48.64V-5.12h48.64c26.624 0 48.64 22.016 48.64 48.64s-21.504 48.64-48.64 48.64zM657.92 320h-97.28V368.64h97.28c26.624 0 48.64 22.016 48.64 48.64s-22.016 48.64-48.64 48.64h-40.448l74.752 69.12c9.216 8.192 14.336 19.456 14.336 31.744 0 12.288-5.12 24.064-14.336 31.744-19.456 17.408-49.152 17.408-68.608 0L512 495.616 400.384 599.04c-19.456 17.408-49.152 17.408-68.608 0-9.216-8.192-14.336-19.456-14.336-31.744 0-12.288 5.12-24.064 14.336-31.744L406.528 465.92h-40.448c-26.624 0-48.64-22.016-48.64-48.64s22.016-48.64 48.64-48.64h97.28v-48.64h-97.28c-26.624 0-48.64-22.016-48.64-48.64s22.016-48.64 48.64-48.64h97.28v-48.64c0-26.624 22.016-48.64 48.64-48.64s48.64 22.016 48.64 48.64v48.64h97.28c26.624 0 48.64 22.016 48.64 48.64 0 27.136-21.504 48.64-48.64 48.64z"  horiz-adv-x="1024" />

    
    <glyph glyph-name="fenxiao-" unicode="&#58973;" d="M579.072 112.12800000000004l-244.736 134.656c-36.864-30.72-79.36-48.64-128.512-48.64-103.936 0-183.296 79.36-183.296 183.296 0 103.936 79.36 183.296 183.296 183.296 54.784 0 97.792-24.576 134.656-54.784l293.376 146.944v30.72c0 103.936 79.36 183.296 183.296 183.296 103.936 0 183.296-79.36 183.296-183.296 0-103.936-79.36-183.296-183.296-183.296-49.152 0-91.648 18.432-122.368 49.152L389.12 394.752v-30.72l250.368-140.8c30.72 24.576 73.216 43.008 116.224 43.008 103.936 0 183.296-79.36 183.296-183.296 0-103.936-79.36-183.296-183.296-183.296-103.936 0-183.296 79.36-183.296 183.296 0.512 4.608 0.512 16.896 6.656 29.184z m-372.736 207.872c36.864 0 60.928 24.576 60.928 60.928 0 36.864-24.576 60.928-60.928 60.928-36.864 0-60.928-24.576-60.928-60.928 0-36.864 24.576-60.928 60.928-60.928z m611.328 305.664c36.864 0 60.928 24.576 60.928 60.928 0 36.864-24.576 60.928-60.928 60.928-36.864 0-60.928-24.576-60.928-60.928 0-36.864 24.064-60.928 60.928-60.928z m-60.928-611.328c36.864 0 60.928 24.576 60.928 60.928 0 36.864-24.576 60.928-60.928 60.928-36.864 0-60.928-24.576-60.928-60.928-0.512-36.352 24.064-60.928 60.928-60.928z m0 0"  horiz-adv-x="1024" />

    
    <glyph glyph-name="xiugai-" unicode="&#58974;" d="M486.912 363.52c20.992-20.992 55.296-20.992 76.288 0l394.24 394.24c20.992 20.992 20.992 55.296 0 76.288s-55.296 20.992-76.288 0l-394.24-394.24C465.92 418.304 465.92 384 486.912 363.52zM925.696 529.408c-28.672 0-51.712-23.04-51.712-51.712v-294.912c0-86.528-70.656-157.184-157.184-157.184H307.2c-86.528 0-157.184 70.656-157.184 157.184V585.216C150.016 671.744 220.672 742.4 307.2 742.4h287.232c29.696 0 53.76 24.064 53.76 53.76S624.128 849.92 594.432 849.92H305.152C162.816 849.408 46.592 733.184 46.592 590.848v-413.696c0-142.336 116.224-258.56 258.56-258.56h413.696c142.336 0 258.56 116.224 258.56 258.56V477.696c0 28.672-23.04 51.712-51.712 51.712z"  horiz-adv-x="1024" />

    
    <glyph glyph-name="tixian-" unicode="&#58975;" d="M512 0c-211.968 0-384 172.544-384 384s172.544 384 384 384c211.968 0 384-172.544 384-384 0-29.696 24.064-53.76 53.76-53.76S1003.52 354.304 1003.52 384c0 270.848-220.672 491.52-491.52 491.52S20.48 654.848 20.48 384s220.672-491.52 491.52-491.52c29.696 0 53.76 24.064 53.76 53.76S541.696 0 512 0zM657.92 320h-97.28V368.64h97.28c26.624 0 48.64 22.016 48.64 48.64s-22.016 48.64-48.64 48.64h-40.448l74.752 69.12c9.216 8.192 14.336 19.456 14.336 31.744 0 12.288-5.12 24.064-14.336 31.744-19.456 17.408-49.152 17.408-68.608 0L512 495.616 400.384 599.04c-19.456 17.408-49.152 17.408-68.608 0-9.216-8.192-14.336-19.456-14.336-31.744 0-12.288 5.12-24.064 14.336-31.744L406.528 465.92h-40.448c-26.624 0-48.64-22.016-48.64-48.64s22.016-48.64 48.64-48.64h97.28v-48.64h-97.28c-26.624 0-48.64-22.016-48.64-48.64s22.016-48.64 48.64-48.64h97.28v-48.64c0-26.624 22.016-48.64 48.64-48.64s48.64 22.016 48.64 48.64v48.64h97.28c26.624 0 48.64 22.016 48.64 48.64 0 27.136-21.504 48.64-48.64 48.64zM990.72 73.728l-120.832 110.08-5.12 4.608c-8.192 7.68-18.944 11.776-30.208 11.776-7.168 0-14.848-2.048-20.992-5.632-14.336-8.192-23.04-23.04-23.04-39.424v-5.12s0.512-2.048 0.512-2.56c1.536-10.24 6.656-19.456 14.336-26.112l32.768-29.696h-94.72c-24.576 0-44.544-20.48-44.544-45.056 0-24.576 19.968-44.544 44.544-45.056h94.72l-32.768-29.696c-7.68-6.656-12.288-15.872-14.336-26.112v-7.68c0-11.776 4.608-23.04 12.8-31.232 8.192-8.192 19.968-13.312 31.744-13.312h4.096c9.728 1.024 18.432 5.12 25.6 11.264l119.296 108.544 3.072 2.56 3.584 4.096s12.8 11.264 12.8 26.624-13.312 27.136-13.312 27.136z"  horiz-adv-x="1024" />

    
    <glyph glyph-name="xiaofei-" unicode="&#58976;" d="M720.384 854.016h-36.352-0.512H303.616c-143.36 0-260.608-117.248-260.608-260.608v-418.816c0-143.36 117.248-260.608 260.608-260.608h416.768c143.36 0 260.608 117.248 260.608 260.608V593.408c0 143.36-117.248 260.608-260.608 260.608z m152.576-677.376c0-87.04-71.168-158.208-158.208-158.208H309.248c-87.04 0-158.208 71.168-158.208 158.208v414.72c0 87.04 71.168 158.208 158.208 158.208H714.752c87.04 0 158.208-71.168 158.208-158.208v-414.72zM657.92 335.36h-97.28V384h97.28c26.624 0 48.64 22.016 48.64 48.64s-22.016 48.64-48.64 48.64h-40.448l74.752 69.12c9.216 8.192 14.336 19.456 14.336 31.744 0 12.288-5.12 24.064-14.336 31.744-19.456 17.408-49.152 17.408-68.608 0L512 510.976 400.384 613.888c-19.456 17.408-49.152 17.408-68.608 0-9.216-7.68-14.336-19.456-14.336-31.744 0-12.288 5.12-24.064 14.336-31.744L406.016 481.28h-40.448c-26.624 0-48.64-22.016-48.64-48.64s22.016-48.64 48.64-48.64h97.28v-48.64h-97.28c-26.624 0-48.64-22.016-48.64-48.64s22.016-48.64 48.64-48.64h97.28v-48.64c0-26.624 22.016-48.64 48.64-48.64s48.64 22.016 48.64 48.64v48.64h97.28c26.624 0 48.64 22.016 48.64 48.64 0.512 27.136-21.504 48.64-48.128 48.64z"  horiz-adv-x="1024" />

    
    <glyph glyph-name="yaoqinghaoyou-" unicode="&#58977;" d="M938.496 92.15999999999997h-48.64v48.64c0 26.624-22.016 48.64-48.64 48.64s-48.64-22.016-48.64-48.64v-48.64h-48.64c-26.624 0-48.64-22.016-48.64-48.64s22.016-48.64 48.64-48.64h48.64v-48.64c0-26.624 22.016-48.64 48.64-48.64s48.64 22.016 48.64 48.64V-5.1200000000000045h48.64c26.624 0 48.64 22.016 48.64 48.64s-21.504 48.64-48.64 48.64zM718.848 217.60000000000002c15.872 0 31.232 7.168 41.472 18.944 9.728 11.264 14.336 25.088 13.312 39.936-1.024 14.848-7.68 28.16-18.944 37.376-1.536 1.536-3.072 2.56-4.608 3.584-21.504 14.848-44.544 27.648-68.608 38.912 122.88 101.888 142.848 284.16 43.52 410.624C669.184 839.168 584.192 880.64 492.032 880.64c-66.56 0-130.048-22.016-182.784-62.976C181.248 716.8 158.72 530.432 259.072 401.92c12.8-16.384 27.648-31.744 43.52-45.056-161.28-73.216-265.728-234.496-266.24-412.16-0.512-27.648 19.456-52.224 47.104-56.832 2.56-0.512 5.12-0.512 7.68-0.512 27.136 0 50.688 20.48 54.272 47.104 0.512 2.56 0.512 5.12 0.512 7.68 0 92.16 35.84 179.2 101.376 244.736C312.32 252.41600000000005 399.36 288.256 492.032 288.256c70.144 0 138.24-20.992 196.096-60.928 9.216-6.144 19.968-9.728 30.72-9.728z m-40.96 346.624c-9.728-87.552-77.824-155.648-165.376-164.864-6.656-0.512-13.824-1.024-20.48-1.024-95.232 0-174.592 71.68-185.344 166.4-11.264 102.4 62.976 194.56 165.376 205.824 6.656 0.512 13.824 1.024 20.48 1.024 95.232 0 174.592-71.68 185.344-166.4 1.536-13.824 1.536-27.648 0-40.96z"  horiz-adv-x="1024" />

    
    <glyph glyph-name="jifen-" unicode="&#58978;" d="M812.032 216.06399999999996c-77.824-41.984-179.712-72.192-300.032-72.192-119.808 0-221.696 30.208-300.032 72.192v-72.192c0-66.048 132.096-119.808 300.032-119.808s300.032 53.76 300.032 119.808v72.192z m0 167.936V456.192C733.696 414.208 631.808 384 512 384s-221.696 30.208-300.032 72.192V384c0-66.048 132.096-119.808 300.032-119.808s300.032 53.76 300.032 119.808zM931.84 624.1279999999999v-479.744c0-132.096-185.856-240.128-419.84-240.128s-419.84 108.032-419.84 240.128V624.1279999999999c0 132.096 185.856 240.128 419.84 240.128 233.984-0.512 419.84-108.544 419.84-240.128z m-419.84-120.32c167.936 0 300.032 53.76 300.032 119.808 0 66.048-132.096 119.808-300.032 119.808S211.968 689.664 211.968 623.616c0-65.536 132.096-119.808 300.032-119.808z m0 0"  horiz-adv-x="1024" />

    
    <glyph glyph-name="jiaoshi-" unicode="&#58979;" d="M512 875.008C240.64 875.008 20.992 655.36 20.992 384c0-271.36 220.16-491.008 491.008-491.008 271.36 0 491.008 220.16 491.008 491.008 0 271.36-219.648 491.008-491.008 491.008z m0-872.96c-210.944 0-381.952 171.008-381.952 381.952 0 210.944 171.008 381.952 381.952 381.952 210.944 0 381.952-171.008 381.952-381.952 0-210.944-171.008-381.952-381.952-381.952zM366.08 591.872c-30.208 0-54.784-24.576-54.784-54.784v-139.776c0-30.208 24.576-54.784 54.784-54.784 30.208 0 54.784 24.576 54.784 54.784V537.088c0 30.208-24.576 54.784-54.784 54.784zM657.92 591.872c-30.208 0-54.784-24.576-54.784-54.784v-139.776c0-30.208 24.576-54.784 54.784-54.784 30.208 0 54.784 24.576 54.784 54.784V537.088c0 30.208-24.576 54.784-54.784 54.784z"  horiz-adv-x="1024" />

    
    <glyph glyph-name="zuichun-" unicode="&#58980;" d="M887.296 380.928c-7.168 3.072-14.848 5.12-22.528 5.12-22.528 0-43.008-14.336-52.224-36.864-3.584-8.192-86.016-206.848-300.544-217.6-216.064 10.24-297.472 208.384-301.056 217.088-8.704 22.528-29.696 37.376-52.224 37.376-7.68 0-15.36-1.536-23.04-5.12-13.824-6.656-24.576-18.432-30.208-33.792-5.632-15.36-5.632-32.256 0.512-47.616l0.512-0.512c4.608-11.264 119.808-278.528 402.432-290.816h5.12c118.272 5.12 225.28 56.832 309.248 148.992 64.512 70.656 92.672 139.776 93.696 142.848l0.512 1.024c11.776 30.72-1.536 66.048-30.208 79.872zM1003.008 528.384c-10.752 11.776-25.6 18.944-41.472 18.944-3.584 0-89.6 1.536-175.616 122.368-41.472 58.368-91.136 88.576-146.944 90.112h-4.096c-50.688 0-93.696-24.576-121.856-46.592-28.16 22.016-71.168 46.592-121.856 46.592h-5.12c-56.32-2.048-105.472-32.256-146.944-90.112-87.04-120.832-172.544-122.368-176.128-122.368-31.232 0-56.32-26.112-57.344-59.904-0.512-16.384 5.12-32.256 15.36-44.032s24.576-18.944 39.936-19.456h2.048c24.064 0 149.504 8.192 265.728 169.984 19.968 27.648 39.936 41.984 59.904 42.496h1.536c36.864 0 72.704-38.912 77.824-44.544l0.512-1.024 2.56-2.56 5.12-5.632 2.048-1.024 1.536-1.536 5.632-3.072c1.024-0.512 1.536-1.024 2.048-1.024l2.048-1.024 2.048-0.512c0.512-0.512 1.536-0.512 2.048-1.024l2.56-1.024 2.048-0.512 4.608-1.536h2.56c1.536 0 3.072-0.512 4.608-0.512h3.072c4.608 0 7.68 1.024 9.216 1.024l2.048 0.512 1.536 0.512c2.048 0.512 4.096 1.536 6.144 2.048 3.072 1.024 5.632 2.56 8.192 4.096 1.536 1.024 2.56 2.048 3.584 2.56l2.56 1.024 4.608 4.608 1.024 1.024 2.56 3.072 0.512 1.024c5.12 5.632 40.96 44.544 77.824 44.544h1.536c19.968-0.512 40.448-14.848 60.416-42.496 115.712-161.792 241.664-169.984 265.728-169.984h2.56c30.72 1.024 55.296 28.672 55.296 61.952 0.512 16.384-5.12 31.744-15.36 43.008z"  horiz-adv-x="1024" />

    
    <glyph glyph-name="jiaose-1" unicode="&#58981;" d="M347.136-57.856c-83.456 0-151.552 68.096-151.552 151.552V401.408c-16.896 0.512-34.304 6.656-52.736 18.944l-1.536 1.024L46.08 504.32c-28.16 20.48-36.864 64-19.456 98.816l0.512 1.024 72.192 114.176 0.512 0.512C152.576 791.04 225.28 824.832 329.216 824.832h82.944c26.112 0 46.592-15.36 50.176-37.376l14.336-28.16 35.328-41.984 35.328 41.984 14.336 28.16c4.096 21.504 24.576 37.376 50.176 37.376h82.944c103.936 0 176.64-33.792 229.376-105.984l0.512-0.512L996.864 604.16l0.512-1.024c17.408-34.816 8.704-78.848-19.456-98.816l-94.72-82.944-1.536-1.024c-18.432-12.288-35.84-18.432-52.736-18.944v-307.712c0-83.456-68.096-151.552-151.552-151.552H347.136zM246.784 529.92c32.256 0 62.976-32.256 62.976-56.832v-378.88c0-20.48 17.92-43.52 43.52-43.52h317.44c25.6 0 43.52 23.04 43.52 43.52v378.88c0 25.088 30.72 56.832 62.976 56.832 17.408 0 32.768-7.168 35.84-8.704l1.024-0.512 4.608-2.56h1.024l66.56 56.32L834.56 654.336c-27.136 37.888-59.392 61.44-134.144 61.44h-47.616l-5.632-10.24-79.36-91.648-0.512-0.512c-7.68-7.68-17.408-12.8-27.136-16.384 0 0-13.312-6.144-28.16-6.144-13.824 0-28.16 6.144-28.16 6.144-9.728 3.584-19.456 8.704-27.136 16.384l-0.512 0.512-79.872 91.648-5.632 10.24h-47.616c-74.752 0-107.008-23.552-134.144-61.44l-51.2-79.872 66.56-56.32h0.512l4.096 2.56 0.512 0.512 1.024 0.512c3.072 0.512 18.944 8.192 36.352 8.192z"  horiz-adv-x="1024" />

    
    <glyph glyph-name="yingyong-" unicode="&#58982;" d="M915.968 664.064L558.08 861.696c-14.336 7.68-30.208 11.776-46.08 11.776-7.68 0-15.872-1.024-23.552-3.072L108.032 663.552c-30.208-16.896-49.152-48.64-49.152-83.456v-392.704c0-34.816 18.944-66.56 49.152-83.456L465.92-93.696c14.336-7.68 30.208-11.776 46.08-11.776 15.872 0 32.256 4.096 46.08 11.776l357.888 197.632c30.208 16.896 49.152 48.64 49.152 83.456V580.608c0 34.304-18.432 66.56-49.152 83.456z m-61.44-467.456l-342.528-189.44-342.528 189.44V571.392l342.528 189.44 342.528-189.44v-374.784zM315.392 554.496c-8.192 4.608-17.408 6.656-26.624 6.656-5.12 0-10.24-0.512-15.36-2.048-1.536-0.512-3.072-1.024-4.096-1.536 0 0-17.92-9.216-28.672-25.088-8.704-12.288-8.704-28.16-4.608-41.984 4.096-14.336 13.312-26.112 26.624-33.28l194.56-106.496v-211.456c0-30.72 24.576-55.296 55.296-55.296 30.72 0 55.296 24.576 55.296 55.296v211.456L762.88 457.216c26.112 15.36 35.328 48.128 20.48 74.752-9.728 17.408-28.16 28.672-48.64 28.672-8.704 0-17.92-2.048-26.112-6.656l-196.608-107.52-196.608 108.032z"  horiz-adv-x="1024" />

    
    <glyph glyph-name="feiji-" unicode="&#58983;" d="M996.864 784.896c-3.072 4.608-16.896 20.992-43.52 20.992-4.608 0-9.216-0.512-13.824-1.536l-882.176-220.16c-21.504-5.12-38.4-22.528-41.984-44.544-4.096-22.528 5.632-44.544 24.576-56.832l222.72-148.48c22.528-14.848 48.64-23.04 75.776-23.04 24.064 0 48.128 6.656 68.608 18.432l221.696 129.024c17.408 10.24 28.16 29.184 28.16 49.152 0 19.968-10.752 38.912-28.672 49.152-8.704 5.12-18.432 7.68-28.16 7.68-10.24 0-19.968-2.56-28.672-7.68L350.208 428.032c-3.584-2.048-7.68-3.072-11.776-3.072-4.608 0-9.216 1.536-12.8 4.096l-116.224 76.8 642.048 160.256-208.384-446.976-154.112 104.448c-9.728 6.656-20.48 10.24-32.256 10.24-18.432 0-35.84-9.216-46.592-24.064-17.92-25.6-11.776-60.928 13.824-78.848l3.584-2.048-59.904-65.536V189.44c0 19.968-10.752 38.912-28.16 49.152-8.704 5.12-18.432 7.68-28.16 7.68s-19.968-2.56-28.16-7.68c-17.408-10.24-28.16-28.672-28.16-49.152v-170.496c0-23.552 13.824-44.032 35.84-52.736 6.656-2.56 13.824-4.096 20.992-4.096 15.872 0 30.72 6.656 41.472 17.92l168.96 183.808 111.616-75.776c9.728-6.656 20.992-10.24 32.256-10.24 5.12 0 9.728 0.512 14.848 2.048 16.384 4.096 29.696 15.36 36.864 30.72l286.72 615.424c8.704 18.944 6.144 42.496-7.68 58.88z"  horiz-adv-x="1024" />

    
    <glyph glyph-name="qita-" unicode="&#58984;" d="M813.056 797.184C715.264 838.656 614.4 859.648 512.512 859.648c-101.888 0-202.752-20.992-301.056-62.464C102.4 750.592 34.816 645.6320000000001 34.816 523.7760000000001v-235.008c0-114.688 66.048-220.672 167.936-269.312L399.36-73.21600000000001c34.304-17.408 74.752-26.624 113.152-26.624s78.848 9.216 113.152 26.624l196.608 93.184c101.888 48.64 167.936 154.624 167.936 269.312V523.7760000000001c0 122.368-69.632 229.888-177.152 273.408z m67.584-506.368c0-72.704-39.936-138.24-104.96-170.496l-196.608-93.184c-23.552-10.752-45.056-15.872-66.56-15.872s-43.008 5.12-66.56 15.872l-196.608 93.184c-63.488 29.696-104.96 96.768-104.96 170.496V525.8240000000001c0 75.776 44.544 145.408 110.592 172.544 80.896 34.304 167.424 51.712 257.536 51.712 89.6 0 176.128-17.408 257.536-51.712 66.048-27.136 110.592-96.768 110.592-172.544v-235.008zM527.872 507.904c0.512 15.36-5.632 30.208-16.384 40.96-10.752 10.752-24.064 16.384-38.4 16.384s-27.648-5.632-38.4-16.384L339.456 453.632c-10.752-10.752-16.384-24.064-16.384-38.4s5.632-27.648 16.384-38.4c10.752-10.752 24.064-16.384 38.4-16.384s27.648 5.632 38.4 16.384l95.232 95.232c9.728 8.704 15.872 21.504 16.384 35.84zM647.168 468.992c-14.336 0-27.648-5.632-38.4-16.384l-164.864-164.864c-10.24-10.24-16.384-24.064-16.384-38.4s5.632-28.16 16.384-38.4c10.752-10.752 24.064-16.384 38.4-16.384s27.648 5.632 38.4 16.384l164.864 164.864c10.752 10.752 16.384 24.064 16.384 38.4s-5.632 27.648-16.384 38.4c-10.752 10.24-24.576 16.384-38.4 16.384z"  horiz-adv-x="1024" />

    
    <glyph glyph-name="appdown-" unicode="&#58985;" d="M513.024-107.008c-14.336 0-27.648 5.632-37.376 15.36l-134.144 134.144c-19.968 20.48-19.456 54.272 0.512 74.24 10.24 10.24 23.552 15.36 37.376 15.36s27.136-5.12 36.864-14.848l44.032-44.032v298.496c0 29.184 24.064 53.248 53.248 53.248s53.248-24.064 53.248-53.248v-297.984l43.52 43.52 0.512 0.512c9.728 9.216 22.528 13.824 35.84 13.824 14.336 0 27.648-5.632 37.376-15.36 19.968-19.968 20.992-52.736 1.536-73.728l-1.024-1.024-131.072-131.072c-2.048-2.048-3.584-4.096-6.144-6.144l-3.584-3.584h-1.024c-4.096-3.072-9.216-5.12-14.336-6.656-4.608-0.512-9.728-1.024-15.36-1.024z m257.536 260.096c-29.184 0-53.248 24.064-53.248 53.248s24.064 53.248 53.248 53.248h-1.536c64.512 0 117.248 60.928 117.248 136.192 0 70.144-66.048 136.192-136.192 136.192-14.336 0-27.648 5.632-37.376 15.36-9.728 9.728-15.36 23.552-15.36 37.888 0 101.376-82.432 183.808-183.808 183.808-101.376 0-183.808-82.432-183.808-183.808 0-14.336-5.632-27.648-15.36-37.376-10.24-10.24-23.552-15.36-37.376-15.36-70.144 0-136.192-66.048-136.192-136.192 0-75.264 52.736-136.192 117.248-136.192H256c29.184 0 53.248-24.064 53.248-53.248S285.184 153.6 256 153.6h1.536c-123.392 0-223.744 109.056-223.744 242.688 0 110.592 84.992 212.48 193.536 237.056 10.24 62.976 41.472 121.344 89.6 165.376C370.688 847.872 440.32 875.008 513.024 875.008c72.704 0 142.336-27.136 196.096-76.288 48.128-44.032 79.36-102.4 90.112-166.4 108.544-24.576 193.536-126.464 193.536-237.056 0-133.632-100.352-242.688-223.744-242.688h1.536z"  horiz-adv-x="1024" />

    
    <glyph glyph-name="qq-1" unicode="&#58986;" d="M664.064-88.064c-60.928 0-107.52 12.8-147.456 39.424h-13.824c-35.328-26.112-84.992-39.424-148.48-39.424-55.808 0-104.448 12.8-140.8 36.864-43.008 25.088-66.56 63.488-66.56 108.544 0 15.36 2.048 28.672 6.656 41.472-37.888 15.872-62.464 52.736-68.608 101.888-5.632 43.008 0 91.648 17.92 144.896 9.728 29.184 26.112 71.68 60.928 104.448 0.512 28.672 6.656 56.832 16.896 79.36 1.024 83.456 33.28 160.256 95.744 228.864l0.512 0.512C342.016 824.32 418.816 856.064 512 856.064s169.984-31.744 235.008-96.768c64-64 95.232-139.264 96.256-230.4 10.752-27.136 15.872-49.664 16.896-74.752 20.48-25.088 47.616-62.464 60.928-109.056 17.92-53.248 23.552-101.888 17.408-143.36-6.656-53.248-29.184-86.016-67.072-100.352-0.512-0.512-1.024-0.512-1.024-1.024 4.608-12.8 6.656-26.112 6.656-41.984 0-42.496-22.016-79.36-66.048-108.544-36.864-25.088-86.528-37.888-146.944-37.888z m-97.28 135.168c23.552-16.896 52.224-24.064 92.16-24.064 31.744 0 61.44 5.632 79.872 14.848 21.504 10.752 21.504 16.896 21.504 19.456s0 8.704-26.112 19.456h-0.512l-4.096 2.048-2.56 2.56h-0.512c-1.024 0.512-2.048 1.536-3.584 2.56-5.632 4.608-17.92 14.336-19.968 30.208-5.632 16.384-1.024 35.328 11.776 48.64 10.24 10.24 19.456 19.456 23.552 31.232l0.512 2.048 0.512 1.024c9.216 17.408 27.648 28.672 48.128 28.672h5.632c18.944 0 35.328-9.216 43.52-17.408 0.512-0.512 1.024-0.512 1.024-1.024 0.512 3.584 0.512 8.192 0.512 13.824v4.096c4.096 22.016 0.512 50.688-10.752 84.992-10.24 30.72-25.6 55.296-49.152 78.848-19.456 12.288-19.456 33.792-19.456 45.568v11.264c0 12.288-4.096 24.064-12.288 36.864-10.24 11.264-10.24 23.552-10.24 30.208v5.632c0 55.808-21.504 108.032-65.536 159.232-45.568 45.056-96.256 66.048-158.208 66.048-63.488 0-113.152-21.504-152.064-66.048l-1.024-1.024c-45.568-45.056-66.56-95.744-66.56-158.72v-5.632c0-6.656 0-18.944-10.752-30.72-8.192-12.8-12.288-25.088-12.288-36.864v-11.264c0-19.456-9.216-35.328-17.408-43.52-24.576-25.088-40.448-49.664-50.176-79.872-5.632-33.28-10.752-65.536-10.752-90.624 0-3.584 0-6.656 0.512-9.216l2.56 1.024c2.048 1.024 3.584 2.048 5.632 3.072l1.024 0.512c7.68 4.096 16.896 9.216 30.208 9.216 18.944 0 36.864-9.728 46.08-26.112 5.632-6.656 10.752-14.336 14.848-20.992l1.024-1.536c3.584-5.632 6.144-10.752 9.728-13.312l0.512-0.512c12.288-12.288 12.288-29.696 12.288-43.52 0-31.232-26.624-39.936-36.864-43.52-25.088-9.728-25.088-15.872-25.088-18.432 0-3.072 0-8.704 20.992-19.456 26.624-10.24 51.2-14.848 80.896-14.848 44.544 0 79.36 9.728 96.768 27.648 12.288 12.288 29.696 12.288 37.888 12.288h45.056c0 0.512 22.528-0.512 31.232-14.848z"  horiz-adv-x="1024" />

    
    <glyph glyph-name="dianshi--" unicode="&#58987;" d="M786.944 696.832h-13.312l68.608 87.552c18.432 23.552 14.336 57.344-9.216 75.264-23.552 18.432-57.344 14.336-75.264-9.216l-119.808-153.088-0.512-0.512H387.072l-0.512 0.512L266.752 850.432c-18.432 23.552-52.224 27.648-75.264 9.216-23.552-18.432-27.648-52.224-9.216-75.264L250.88 696.832h-13.312C117.76 696.32 20.992 599.552 20.992 480.256v-367.104c0.512-119.296 97.28-216.064 216.576-216.576h549.376c119.296 0.512 216.064 97.28 216.576 216.576V480.256c-0.512 119.296-97.28 216.064-216.576 216.576z m-344.576-361.984h-45.568v-154.624c0-30.72-25.088-55.296-55.296-55.296-30.72 0-55.808 25.088-55.808 55.296v154.624H240.64c-30.72 0-55.808 25.088-55.808 55.296 0 30.72 25.088 55.808 55.808 55.808h201.728c30.72 0 55.808-25.088 55.808-55.808-0.512-30.72-25.088-55.296-55.808-55.296z m391.68 31.744l-98.304-211.456c-7.68-14.848-20.992-25.6-37.376-29.696l-2.048-0.512c-1.536-0.512-2.56-0.512-4.096-1.024-2.048-0.512-3.584-0.512-5.12-0.512h-3.584c-2.048 0-3.584 0-5.12 0.512-1.536 0-3.072 0.512-4.096 1.024l-2.048 0.512c-16.384 3.584-29.696 14.336-37.376 29.696l-98.304 211.456c-3.584 7.68-5.632 15.872-5.632 24.064 0 30.72 24.576 55.808 55.296 55.808 20.992 0 40.448-12.288 50.176-31.232l48.64-104.96 48.64 104.448c9.216 18.944 28.672 31.232 50.176 31.232 8.192 0 16.896-2.048 24.576-5.632 27.136-12.8 38.912-46.08 25.6-73.728z"  horiz-adv-x="1024" />

    
    <glyph glyph-name="dongman-" unicode="&#58988;" d="M1004.032 714.24C993.28 805.888 914.944 875.52 822.272 876.032c-8.192 0-16.896-0.512-25.088-1.536-56.832-7.68-105.472-40.96-133.632-88.064-47.616 16.384-98.304 25.6-151.552 25.6-53.248 0-103.936-9.216-151.552-25.6-28.16 47.104-76.8 80.896-133.632 88.064-8.704 1.024-16.896 1.536-25.088 1.536C109.056 875.52 30.72 805.888 19.968 714.24c-8.192-65.536 20.48-129.536 71.168-168.448-26.112-58.88-38.912-124.928-38.912-194.048 0-253.952 205.824-459.776 459.776-459.776 253.952 0 459.776 205.824 459.776 459.776 0 67.072-14.336 133.632-40.448 192.512 51.712 38.912 80.896 103.936 72.704 169.984z m-265.728-436.224c-27.648-97.792-117.248-169.472-223.744-169.472s-196.096 71.68-223.744 169.472c-8.704 32.256 15.872 63.488 48.64 63.488 22.528 0 41.984-14.848 48.128-36.352 15.872-55.296 66.56-95.744 126.976-95.744s111.104 40.448 126.976 95.744c6.144 21.504 25.6 36.352 48.128 36.352 32.768 0 57.344-31.232 48.64-63.488z"  horiz-adv-x="1024" />

    
    <glyph glyph-name="liuyan--" unicode="&#58989;" d="M950.272 161.28A491.52 491.52 0 1 1 512-107.52v0.512h1.024a493.312 493.312 0 0 1 222.208 53.248l142.848-35.84a101.4784 101.4784 0 0 1 27.136-3.584 83.3536 83.3536 0 0 1 67.072 31.232c15.36 19.456 20.992 45.568 15.36 73.728z m-329.728 109.568a48.7936 48.7936 0 0 0-42.496-24.576H312.832a48.7936 48.7936 0 0 0-42.496 24.576 49.5104 49.5104 0 0 0 0 49.152 48.7936 48.7936 0 0 0 42.496 24.576h265.216a48.7936 48.7936 0 0 0 42.496-24.576 49.5104 49.5104 0 0 0 0-49.152z m132.608 177.664a48.7936 48.7936 0 0 0-42.496-24.576H307.712v-1.024a50.5344 50.5344 0 0 0-38.4 24.576 48.9984 48.9984 0 0 0 0 50.176 49.92 49.92 0 0 0 42.496 24.576h398.848a48.7936 48.7936 0 0 0 42.496-24.576 49.5104 49.5104 0 0 0 0-49.152z"  horiz-adv-x="1024" />

    
    <glyph glyph-name="gengxin-1" unicode="&#58990;" d="M513.024 875.52C241.664 875.52 22.016 655.36 22.016 384.512c0-271.36 220.16-491.008 491.008-491.008 271.36 0 491.008 220.16 491.008 491.008 0.512 271.36-219.648 491.008-491.008 491.008z m226.304-663.552c0-29.696-24.576-54.272-54.272-54.272-18.432 0-34.304 8.704-44.032 22.528L395.776 425.472v-212.992c0-29.696-24.576-54.272-54.272-54.272s-54.272 24.576-54.272 54.272V556.544c0 8.704 2.56 17.408 6.144 24.576 0 0.512 0.512 0.512 0.512 1.024 1.024 1.024 1.536 2.048 2.048 3.072 0.512 0.512 0.512 1.024 1.024 1.536 1.024 1.024 1.536 1.536 2.048 2.56 0.512 1.024 1.024 1.536 1.536 2.048l3.072 3.072 0.512 0.512c1.536 1.024 2.56 2.56 4.096 3.584a52.61824 52.61824 0 0 0 67.584 0c1.536-1.024 2.56-2.048 4.096-3.584l250.368-250.88V556.544c0 29.696 24.576 54.272 54.272 54.272s54.272-24.576 54.784-54.272v-344.576z"  horiz-adv-x="1024" />

    
    <glyph glyph-name="jilu-1" unicode="&#58991;" d="M950.272 592.896c-23.04 13.312-49.152 20.48-75.264 20.48-25.088 0-50.176-6.656-72.704-18.944l-22.016-12.288v26.624c0 84.992-69.632 154.624-154.624 154.624H155.648C70.656 763.904 1.024 694.272 1.024 608.768v-452.608c0-84.992 69.632-154.624 154.624-154.624h470.016c84.992 0 154.624 69.632 154.624 154.624v11.776l22.016-12.288c22.016-12.288 47.104-18.944 72.704-18.944 26.624 0 51.712 7.168 75.776 20.48 46.08 27.136 73.728 75.264 73.728 128.512v179.2c-0.512 53.248-28.16 101.376-74.24 128zM363.52 442.88H254.464c-30.208 0-54.784 24.576-54.784 54.784 0 30.208 24.576 54.784 54.784 54.784H363.52c30.208 0 54.784-24.576 54.784-54.784 0-30.208-24.576-54.784-54.784-54.784z"  horiz-adv-x="1024" />

    
    <glyph glyph-name="shoucang-1" unicode="&#58992;" d="M756.736-99.84c-16.384 0-34.816 4.608-51.712 13.312L512 9.728l-194.048-96.256c-15.36-8.192-33.28-12.288-51.2-12.288-23.552 0-47.104 7.68-66.048 21.504-34.304 26.112-52.224 70.656-44.032 111.616l39.424 204.288-151.552 141.312c-29.696 30.208-40.96 73.728-29.696 114.176l0.512 2.048c13.824 41.984 48.64 71.168 91.136 77.312L317.44 611.84l94.72 192.512C431.104 842.752 470.528 867.84 512 867.84c43.52 0 83.968-26.112 100.864-64.512l94.208-191.488 211.456-36.864c42.496-6.144 77.312-36.864 89.6-78.336 13.312-40.448 2.56-84.992-28.16-115.2l-0.512-0.512-151.04-142.336 37.888-205.312c7.68-41.984-8.704-84.48-43.52-110.592-18.432-14.848-41.472-23.04-65.536-23.04l-0.512 0.512z"  horiz-adv-x="1024" />

    
    <glyph glyph-name="dianyings--" unicode="&#58993;" d="M786.944 845.312H237.056A216.9856 216.9856 0 0 1 20.48 628.736v-489.984a216.9856 216.9856 0 0 1 216.576-216.576h549.376a216.9856 216.9856 0 0 1 216.576 216.576V628.736a216.8832 216.8832 0 0 1-216.064 216.576zM450.048 723.8656A54.2208 54.2208 0 0 0 526.2336 716.8l31.1808-37.5296a54.0672 54.0672 0 0 0-83.2512-69.12l-31.1808 37.5296a54.2208 54.2208 0 0 0 7.0656 76.1856zM331.4176 603.0848a54.2208 54.2208 0 0 0-76.1344 7.0656l-31.1808 37.5296a54.2208 54.2208 0 0 0 7.0656 76.1344A54.2208 54.2208 0 0 0 307.2 716.8l31.1808-37.5296a54.2208 54.2208 0 0 0-6.9632-76.1856z m326.5536-332.8l-175.7696-98.3552a88.32 88.32 0 0 0-88.3712 1.3824 88.2176 88.2176 0 0 0-44.1856 77.2096V446.3104a89.1904 89.1904 0 0 0 44.1856 77.2096 87.04 87.04 0 0 0 45.1072 12.544 90.368 90.368 0 0 0 43.7248-11.6224l175.7696-97.6896a89.9072 89.9072 0 0 0-0.4608-156.7232z m108.6464 332.8a54.2208 54.2208 0 0 0-76.1344 7.0656l-31.1808 37.5296a54.2208 54.2208 0 0 0 7.0656 76.1344A54.2208 54.2208 0 0 0 742.4 716.8l31.1808-37.5296a54.2208 54.2208 0 0 0-6.9632-76.1856z"  horiz-adv-x="1024" />

    
    <glyph glyph-name="dianshiju--" unicode="&#58994;" d="M786.944 875.008H237.056A216.9856 216.9856 0 0 1 20.48 658.432V312.32a216.9856 216.9856 0 0 1 216.576-216.576h549.376a216.9856 216.9856 0 0 1 216.576 216.576V658.944a216.7808 216.7808 0 0 1-216.064 216.064z m-153.0368-462.0288l-164.096-91.5968a82.432 82.432 0 0 0-82.4832 1.1776 82.3808 82.3808 0 0 0-41.2672 72.192V577.536a83.3024 83.3024 0 0 0 41.2672 72.0896 81.152 81.152 0 0 0 42.0864 11.7248 84.3776 84.3776 0 0 0 40.96-10.8544l163.9936-91.648a82.176 82.176 0 0 0 42.5472-72.9088 83.456 83.456 0 0 0-43.008-72.96zM730.112 2.048H293.888a54.784 54.784 0 1 1 0-109.568h436.736a54.8352 54.8352 0 0 1 54.784 54.784 55.6032 55.6032 0 0 1-55.296 54.784z"  horiz-adv-x="1024" />

    
    <glyph glyph-name="shipin--" unicode="&#58995;" d="M512 875.008a491.008 491.008 0 1 1 491.008-491.008A490.752 490.752 0 0 1 512 875.008zM667.136 307.2l-172.8-96.4608a91.0336 91.0336 0 0 0-42.9056-11.0592 88.1664 88.1664 0 0 0-44.6464 12.3904A87.04 87.04 0 0 0 363.52 287.6416V480.3584A88.4736 88.4736 0 0 0 451.0208 568.32a86.1184 86.1184 0 0 0 42.8544-11.0592l172.8512-96.8192a87.552 87.552 0 0 0 0.4608-153.6z"  horiz-adv-x="1024" />

    
    <glyph glyph-name="renwu--" unicode="&#58996;" d="M843.776-90.112H171.008c-65.536 0-114.688 50.176-114.688 116.224v4.096c0 78.336 11.264 141.312 67.584 213.504 8.704 10.752 17.92 21.504 27.648 31.232l2.048 1.536c30.208 28.672 93.696 77.312 179.712 77.312 67.072 0 105.984-38.912 167.424-125.952l5.12-7.168 4.608 5.632c3.072 4.096 7.168 9.216 11.264 14.848 31.232 40.448 46.08 58.368 65.536 75.776 28.16 25.088 55.808 36.864 84.992 36.864 62.976 0 139.264-30.72 182.272-73.728 74.24-74.24 113.664-161.28 113.664-251.904 0-4.096 0-4.608-0.512-8.192-6.144-62.976-58.368-110.08-121.344-110.08h-2.56zM513.536 427.008c-114.176 0-230.4 7.168-344.576 20.992h-1.024c-24.576 4.096-46.592 17.408-61.952 36.864-5.632 6.144-26.624 65.536-19.456 105.984l5.12 45.056c7.168 48.128 48.64 84.48 97.28 84.48 2.56 0 5.12 0 7.68-0.512l52.736-5.12L266.752 803.84c5.12 31.744 32.256 54.272 64 54.272 2.56 0 5.632 0 8.192-0.512 58.368-6.656 117.76-9.728 176.128-9.728 58.88 0 118.272 3.072 176.64 9.728H697.856c31.744 0 58.368-22.528 63.488-53.76l17.408-88.576 50.176 4.608c4.096 0.512 7.68 0.512 11.264 0.512 49.152 0 90.624-35.328 98.304-83.968l9.216-45.056v-0.512c4.096-25.6-3.072-83.968-18.432-103.936-16.384-21.504-40.96-35.328-67.584-38.912-114.176-13.824-230.4-20.992-344.576-20.992h-3.584z"  horiz-adv-x="1024" />

    
    <glyph glyph-name="pianku--" unicode="&#58997;" d="M711.2704 874.9056H127.232A109.824 109.824 0 0 1 17.92 765.5936v-577.8432a109.824 109.824 0 0 1 109.312-109.312h584.0384a109.824 109.824 0 0 1 109.312 109.312V765.7472a109.824 109.824 0 0 1-109.312 109.1584z m-172.288-427.6224l-177.9712-112.0256a37.2224 37.2224 0 0 0-57.1392 31.488V590.592a37.2224 37.2224 0 0 0 57.0368 31.5904l177.9712-111.616a37.2224 37.2224 0 0 0 0-63.2832zM896.768 55.7568a53.1456 53.1456 0 0 0-52.8384-53.504H256.3584a54.528 54.528 0 0 1-54.528-54.528 54.528 54.528 0 0 1 54.528-54.528h640.4096a109.312 109.312 0 0 1 109.312 109.312V634.88a54.528 54.528 0 0 1-54.528 54.528A54.528 54.528 0 0 1 896.9728 634.88z"  horiz-adv-x="1024" />

    
    <glyph glyph-name="makefeng-" unicode="&#58998;" d="M302.08 205.312c21.504 21.504 56.832 21.504 78.848 0l124.928-124.928 130.048 79.36c2.048 1.024 3.584 2.56 5.632 3.584 74.24-0.512 148.992 22.016 211.968 68.096L354.304 730.112C304.64 662.016 282.112 580.608 286.72 500.224l-227.84-373.76c-2.048-3.072-3.584-6.656-4.608-10.24-17.408-37.376-17.408-80.896-1.024-118.272l-13.824-13.824c-20.992-20.992-20.992-55.296 0-75.776l1.536-1.536c20.992-20.992 55.296-20.992 75.776 0l14.848 14.848c36.864-14.848 78.848-14.336 115.2 2.56 3.584 1.024 7.168 2.56 10.24 4.608l151.04 92.16L302.08 126.464c-22.016 22.016-22.016 57.344 0 78.848zM896 772.608C769.536 899.072 572.928 910.848 433.152 808.96l499.2-499.2c101.376 139.776 89.6 336.896-36.352 462.848z"  horiz-adv-x="1024" />

    
    <glyph glyph-name="xin--" unicode="&#58999;" d="M996.352 531.456c-18.432 136.192-125.44 243.2-260.608 260.096-12.288 1.536-24.064 2.048-36.352 2.048-67.584 0-131.584-20.992-184.832-60.928l-3.072-2.56-3.072 2.56c-53.248 40.448-116.224 61.44-181.76 61.44-13.312 0-26.112-1.024-39.424-2.56C153.6 774.656 44.544 665.6 27.648 531.456 15.36 436.736 46.592 344.576 113.152 278.016c14.848-14.848 122.368-110.08 261.12-233.472l58.368-52.224c22.528-18.944 49.664-29.184 77.824-29.184s55.296 10.24 77.824 28.672l0.512 0.512c111.616 99.328 299.52 265.728 320.512 283.648l0.512 0.512 1.024 1.024c66.56 67.072 97.792 159.232 85.504 253.952z"  horiz-adv-x="1024" />

    
    <glyph glyph-name="shouye--" unicode="&#59000;" d="M958.976 64V511.488c0 56.832-27.648 110.08-71.68 138.24l-281.088 193.536c-27.136 18.432-58.88 28.672-92.672 28.672-33.792 0-66.56-9.728-94.72-28.16L136.704 649.728c-45.056-28.672-71.68-78.848-71.68-134.656v-451.584c0-92.16 75.264-167.424 167.424-167.424h563.2c45.056 0 88.576 18.432 119.296 50.688 30.208 32.256 46.08 73.728 44.032 117.248z m-336.896 88.576h-220.16c-30.72 0-54.784 24.064-54.784 54.784 0 32.256 22.528 54.784 54.784 54.784h219.648c30.72 0 54.784-24.064 54.784-54.784s-24.064-54.784-54.272-54.784z"  horiz-adv-x="1024" />

    
    </font>
</defs>
</svg>
